<svg width="13" height="9" viewBox="0 0 13 9" fill="none" xmlns="http://www.w3.org/2000/svg">
<path d="M12.7329 2.18017C13.089 1.79581 13.089 1.17263 12.7329 0.788272C12.3768 0.403909 11.7995 0.403909 11.4434 0.788272L5.85522 6.81983C5.49911 7.20419 5.49911 7.82737 5.85522 8.21173C6.21132 8.59609 6.78868 8.59609 7.14479 8.21173L12.7329 2.18017Z" fill="white"/>
<path d="M1.55665 0.788396C1.20054 0.404034 0.623184 0.404034 0.267079 0.788396C-0.0890263 1.17276 -0.0890262 1.79593 0.267079 2.18029L5.85522 8.21173C6.21132 8.59609 6.78868 8.59609 7.14479 8.21173C7.50089 7.82737 7.50089 7.20432 7.14479 6.81995L1.55665 0.788396Z" fill="white"/>
</svg>
