<svg width="30" height="30" viewBox="0 0 30 30" fill="none" xmlns="http://www.w3.org/2000/svg">
<path d="M11.5849 24.5891C10.9936 25.137 10.0348 25.137 9.44349 24.5891C8.85217 24.0413 8.85217 23.153 9.44349 22.6052L18.7228 14.008C19.3141 13.4602 20.2729 13.4602 20.8642 14.008C21.4555 14.5559 21.4555 15.4441 20.8642 15.992L11.5849 24.5891Z" fill="#00FFA3"/>
<path d="M9.44369 7.39485C8.85236 6.84699 8.85236 5.95874 9.44369 5.41089C10.035 4.86304 10.9937 4.86304 11.5851 5.41089L20.8642 14.008C21.4555 14.5559 21.4555 15.4441 20.8642 15.992C20.2729 16.5398 19.3143 16.5398 18.723 15.992L9.44369 7.39485Z" fill="#00FFA3"/>
</svg>
