<svg width="40" height="41" viewBox="0 0 40 41" fill="none" xmlns="http://www.w3.org/2000/svg">
<circle cx="20" cy="20.502" r="20" fill="#F0F2FA"/>
<path d="M27.6715 13.121C27.6653 13.1091 27.6552 13.0998 27.6428 13.0948C26.2132 12.4388 24.7045 11.9711 23.1546 11.7033C23.1405 11.7007 23.126 11.7026 23.113 11.7087C23.1001 11.7148 23.0894 11.7249 23.0825 11.7374C22.877 12.1103 22.6906 12.4933 22.5237 12.8849C20.853 12.6313 19.1535 12.6313 17.4828 12.8849C17.3148 12.4923 17.1253 12.1092 16.9152 11.7374C16.908 11.7251 16.8972 11.7153 16.8844 11.7092C16.8715 11.7032 16.8571 11.7011 16.843 11.7033C15.2929 11.9706 13.7842 12.4383 12.3547 13.0948C12.3425 13.1 12.3322 13.1089 12.3252 13.1202C9.46661 17.3891 8.68353 21.553 9.06768 25.6654C9.06876 25.6755 9.07186 25.6853 9.07679 25.6941C9.08172 25.703 9.08838 25.7108 9.09637 25.717C10.7609 26.9495 12.6227 27.8902 14.6023 28.4991C14.6162 28.5033 14.6311 28.5031 14.645 28.4986C14.6588 28.494 14.6709 28.4854 14.6797 28.4737C15.1048 27.8952 15.4816 27.2826 15.8061 26.6422C15.8105 26.6334 15.8131 26.6237 15.8135 26.6139C15.814 26.6041 15.8124 26.5942 15.8088 26.5851C15.8051 26.5759 15.7996 26.5676 15.7926 26.5607C15.7855 26.5538 15.7771 26.5485 15.7678 26.5451C15.1738 26.3178 14.5986 26.0438 14.0478 25.7256C14.0378 25.7198 14.0294 25.7115 14.0233 25.7016C14.0173 25.6917 14.0137 25.6805 14.0131 25.6689C14.0124 25.6573 14.0145 25.6457 14.0194 25.6352C14.0242 25.6246 14.0316 25.6154 14.0409 25.6084C14.1564 25.5218 14.2721 25.4317 14.3824 25.3408C14.3922 25.3327 14.4041 25.3275 14.4167 25.3258C14.4293 25.3241 14.4421 25.326 14.4537 25.3312C18.0623 26.9781 21.9691 26.9781 25.5349 25.3312C25.5466 25.3256 25.5595 25.3235 25.5723 25.3251C25.5851 25.3266 25.5971 25.3318 25.6071 25.3399C25.7175 25.4309 25.8331 25.5218 25.9495 25.6084C25.9588 25.6154 25.9663 25.6245 25.9712 25.635C25.9761 25.6455 25.9784 25.6571 25.9778 25.6686C25.9772 25.6802 25.9737 25.6915 25.9678 25.7014C25.9618 25.7114 25.9534 25.7197 25.9435 25.7256C25.3939 26.0465 24.8182 26.3203 24.2226 26.5443C24.2133 26.5478 24.2049 26.5532 24.1979 26.5602C24.1909 26.5672 24.1855 26.5756 24.1819 26.5848C24.1784 26.5941 24.1769 26.604 24.1774 26.6138C24.1779 26.6237 24.1806 26.6334 24.1851 26.6422C24.515 27.2791 24.8912 27.8909 25.3106 28.4727C25.3191 28.4847 25.3312 28.4936 25.3451 28.4983C25.3589 28.503 25.374 28.5033 25.388 28.499C27.3711 27.8922 29.2362 26.9513 30.9028 25.717C30.9109 25.7111 30.9177 25.7035 30.9226 25.6948C30.9276 25.686 30.9306 25.6763 30.9315 25.6663C31.3914 20.9119 30.1615 16.7821 27.6715 13.121ZM16.345 23.1614C15.2585 23.1614 14.3633 22.1644 14.3633 20.94C14.3633 19.7155 15.2412 18.7184 16.345 18.7184C17.4574 18.7184 18.3439 19.7242 18.3266 20.9399C18.3266 22.1644 17.4487 23.1614 16.345 23.1614ZM23.6717 23.1614C22.5853 23.1614 21.6901 22.1644 21.6901 20.94C21.6901 19.7155 22.5679 18.7184 23.6717 18.7184C24.7842 18.7184 25.6707 19.7242 25.6534 20.9399C25.6534 22.1644 24.7842 23.1614 23.6717 23.1614Z" fill="#0F131D"/>
</svg>
