<svg width="48" height="49" viewBox="0 0 48 49" fill="none" xmlns="http://www.w3.org/2000/svg">
<circle cx="24" cy="24.7402" r="24" fill="#0E121C"/>
<path d="M33.2054 15.8833C33.198 15.8691 33.1858 15.8579 33.171 15.8518C31.4555 15.0647 29.6451 14.5034 27.7851 14.182C27.7682 14.1789 27.7508 14.1812 27.7352 14.1885C27.7197 14.1959 27.7069 14.2079 27.6986 14.223C27.4521 14.6704 27.2283 15.13 27.0281 15.6C25.0232 15.2956 22.9838 15.2956 20.9789 15.6C20.7774 15.1288 20.55 14.6691 20.2978 14.223C20.2892 14.2083 20.2763 14.1965 20.2609 14.1892C20.2454 14.1819 20.2281 14.1794 20.2113 14.182C18.3511 14.5028 16.5406 15.0641 14.8253 15.8519C14.8106 15.8581 14.7982 15.8687 14.7898 15.8823C11.3595 21.005 10.4198 26.0017 10.8808 30.9366C10.8821 30.9487 10.8858 30.9604 10.8918 30.9711C10.8977 30.9817 10.9057 30.991 10.9153 30.9985C12.9127 32.4774 15.1468 33.6063 17.5224 34.337C17.5391 34.342 17.557 34.3418 17.5736 34.3364C17.5902 34.3309 17.6047 34.3205 17.6152 34.3066C18.1254 33.6124 18.5775 32.8772 18.9669 32.1087C18.9722 32.0981 18.9753 32.0866 18.9758 32.0748C18.9764 32.063 18.9744 32.0512 18.9701 32.0402C18.9658 32.0292 18.9592 32.0192 18.9507 32.0109C18.9422 32.0027 18.9321 31.9963 18.921 31.9922C18.2081 31.7195 17.5179 31.3906 16.857 31.0088C16.845 31.0018 16.8349 30.9919 16.8276 30.98C16.8203 30.9681 16.8161 30.9546 16.8153 30.9407C16.8145 30.9268 16.8171 30.9129 16.8229 30.9003C16.8287 30.8876 16.8375 30.8766 16.8486 30.8682C16.9873 30.7643 17.1261 30.6562 17.2585 30.547C17.2703 30.5373 17.2845 30.5311 17.2997 30.5291C17.3148 30.527 17.3301 30.5293 17.344 30.5355C21.6743 32.5118 26.3625 32.5118 30.6415 30.5355C30.6555 30.5289 30.671 30.5263 30.6864 30.5282C30.7017 30.53 30.7162 30.5362 30.7281 30.546C30.8606 30.6551 30.9993 30.7643 31.1391 30.8682C31.1502 30.8765 31.1591 30.8875 31.165 30.9001C31.171 30.9127 31.1737 30.9266 31.173 30.9405C31.1722 30.9544 31.1681 30.9679 31.1609 30.9798C31.1537 30.9917 31.1437 31.0017 31.1318 31.0088C30.4723 31.3938 29.7815 31.7225 29.0667 31.9912C29.0556 31.9954 29.0455 32.0019 29.0371 32.0103C29.0287 32.0187 29.0222 32.0288 29.0179 32.0399C29.0137 32.051 29.0118 32.0628 29.0125 32.0747C29.0131 32.0865 29.0163 32.0981 29.0217 32.1087C29.4176 32.873 29.869 33.6072 30.3724 34.3054C30.3826 34.3197 30.397 34.3304 30.4137 34.3361C30.4303 34.3417 30.4484 34.342 30.4652 34.3369C32.845 33.6087 35.083 32.4797 37.083 30.9985C37.0927 30.9914 37.1008 30.9823 37.1068 30.9718C37.1127 30.9613 37.1163 30.9497 37.1174 30.9377C37.6693 25.2324 36.1935 20.2766 33.2054 15.8833ZM19.6136 27.9318C18.3098 27.9318 17.2356 26.7354 17.2356 25.266C17.2356 23.7967 18.289 22.6002 19.6136 22.6002C20.9485 22.6002 22.0123 23.8071 21.9915 25.2659C21.9915 26.7354 20.9381 27.9318 19.6136 27.9318ZM28.4057 27.9318C27.102 27.9318 26.0277 26.7354 26.0277 25.266C26.0277 23.7967 27.0811 22.6002 28.4057 22.6002C29.7407 22.6002 30.8045 23.8071 30.7837 25.2659C30.7837 26.7354 29.7407 27.9318 28.4057 27.9318Z" fill="#F2F3F8"/>
</svg>
