<svg width="48" height="49" viewBox="0 0 48 49" fill="none" xmlns="http://www.w3.org/2000/svg">
<circle cx="24" cy="24.7402" r="24" fill="#0E121C"/>
<g clip-path="url(#clip0_0_1802)">
<path d="M17.7221 16.082C13.2362 16.082 9.59961 19.7437 9.59961 24.2602C9.59961 28.7768 13.2365 32.4385 17.7221 32.4385C22.2078 32.4385 25.8446 28.777 25.8446 24.2602C25.8446 19.7435 22.2082 16.082 17.7221 16.082ZM30.6934 16.5611C28.4503 16.5611 26.6323 20.009 26.6323 24.2604C26.6323 28.5118 28.4506 31.9599 30.6936 31.9599C32.9367 31.9599 34.7549 28.512 34.7549 24.2604H34.7546C34.7546 20.0077 32.9366 16.5611 30.6934 16.5611H30.6934ZM36.9711 17.363C36.1825 17.363 35.5431 20.4513 35.5431 24.2604C35.5431 28.0694 36.1821 31.1577 36.9711 31.1577C37.7602 31.1577 38.3996 28.0686 38.3996 24.2602C38.3996 20.451 37.7599 17.363 36.9712 17.363H36.9711Z" fill="#F2F3F8"/>
</g>
<defs>
<clipPath id="clip0_0_1802">
<rect width="28.8" height="23.04" fill="white" transform="translate(9.59961 12.7402)"/>
</clipPath>
</defs>
</svg>
