<svg width="233" height="55" viewBox="0 0 233 55" fill="none" xmlns="http://www.w3.org/2000/svg">
<path d="M78.2799 42.7392C77.8776 43.408 77.4485 44.0628 77.073 44.7455C76.5768 45.6093 76.1476 46.5288 75.8794 47.5041C75.7453 47.9639 75.6649 48.4376 75.6649 48.9252C75.6649 50.0537 76.2549 50.7922 77.3144 51.029C77.8374 51.1405 78.347 51.1405 78.87 51.0847C80.3585 50.9176 81.7532 50.4021 83.1211 49.8169C83.1345 49.8169 83.1479 49.803 83.1479 49.803C79.4198 46.2502 77.596 41.8615 77.9849 36.595C78.3067 32.262 80.1171 28.6396 83.3088 25.8392C86.9296 22.6626 91.1539 21.4923 95.8074 22.3561C100.474 23.2338 103.948 25.9506 106.375 30.1582C106.616 29.7821 106.858 29.3919 107.086 29.0158C107.622 28.1102 108.105 27.1767 108.44 26.1736C108.628 25.6163 108.762 25.059 108.762 24.4738C108.775 23.8608 108.641 23.2895 108.199 22.8437C107.863 22.5093 107.434 22.3421 106.978 22.2585C106.321 22.1471 105.677 22.2028 105.02 22.3143C103.653 22.5511 102.352 23.0527 101.078 23.61C100.957 23.6657 100.85 23.7075 100.729 23.7493C100.903 23.6518 101.078 23.5682 101.265 23.4707C102.553 22.8158 103.854 22.2307 105.208 21.757C106.04 21.4644 106.884 21.2275 107.756 21.1022C108.453 20.9907 109.164 20.9489 109.862 21.0882C110.385 21.1997 110.867 21.3947 111.243 21.8127C111.632 22.2446 111.847 22.7601 111.927 23.3453C112.021 24.1394 111.873 24.9057 111.632 25.6441C111.31 26.6751 110.827 27.6365 110.304 28.5699C109.486 30.0328 108.547 31.4261 107.568 32.7915C107.528 32.8611 107.515 32.9029 107.542 32.9865C107.877 34.0175 108.091 35.0764 108.199 36.1631C108.306 37.1802 108.319 38.1972 108.225 39.2282C108.065 41.2484 107.542 43.1572 106.656 44.9684C105.879 46.5706 104.859 47.9917 103.626 49.2317C102.499 50.3603 101.252 51.2798 99.8573 51.9903C98.4492 52.7148 96.9875 53.2025 95.4319 53.4533C94.5065 53.6065 93.5678 53.6622 92.6157 53.6344C90.1347 53.5508 87.8013 52.8681 85.6422 51.6002C85.5215 51.5306 85.4277 51.5306 85.307 51.6002C83.8721 52.3387 82.4103 52.9935 80.8815 53.4951C80.0635 53.7598 79.232 53.9827 78.3872 54.1081C77.6228 54.2195 76.8584 54.2613 76.1074 54.0941C75.5442 53.9688 75.0212 53.7458 74.6054 53.3C74.2702 52.9378 74.0958 52.5058 74.0288 52.0043C73.9349 51.238 74.0824 50.4856 74.297 49.7612C74.6189 48.6744 75.115 47.6713 75.6649 46.696C76.4293 45.3306 77.3278 44.0489 78.2665 42.8089C78.2531 42.7671 78.2665 42.7531 78.2799 42.7392ZM88.6596 46.7796C88.7266 46.7378 88.7669 46.7239 88.7937 46.696C91.4624 44.9823 93.9835 43.0597 96.384 40.9837C98.4358 39.2143 100.407 37.3334 102.244 35.3132C103.25 34.2126 104.216 33.0701 105.128 31.8719C105.195 31.7883 105.195 31.7326 105.154 31.649C104.417 30.0886 103.425 28.7232 102.191 27.5529C101.507 26.898 100.783 26.285 99.9244 25.867C97.9933 24.9057 95.9817 24.6549 93.8897 25.1565C92.1195 25.5745 90.6175 26.494 89.3167 27.7897C88.2439 28.8486 87.4258 30.1025 86.7955 31.4818C86.0177 33.2094 85.602 35.0207 85.5215 36.9155C85.4679 38.1554 85.5484 39.3815 85.7898 40.5936C86.1518 42.4327 86.8358 44.1464 87.8818 45.679C88.1098 46.0551 88.3914 46.4034 88.6596 46.7796ZM90.7382 48.6466C90.7516 48.6605 90.765 48.6744 90.7919 48.6884C92.6157 49.9423 94.6272 50.4996 96.8131 50.2906C98.0201 50.1791 99.1466 49.803 100.219 49.2178C101.534 48.4933 102.633 47.518 103.559 46.3059C105.45 43.8259 106.321 40.9698 106.388 37.835C106.402 36.9433 106.335 36.0377 106.201 35.16C106.174 35.0206 106.147 34.8953 106.12 34.7281C106.08 34.7838 106.04 34.8256 106.013 34.8535C105.114 36.0099 104.162 37.1244 103.143 38.1694C102.66 38.657 102.164 39.1307 101.695 39.6323C100.81 40.5518 99.911 41.4435 98.9856 42.3212C97.7653 43.4498 96.4913 44.5086 95.1637 45.4978C94.1579 46.2502 93.1521 46.9886 92.1463 47.7131C91.6769 48.0475 91.2076 48.3401 90.7382 48.6466Z" fill="#00FFA3"/>
<path d="M194.228 54H186L198.538 12H208.432L220.952 54H212.724L203.627 21.5975H203.343L194.228 54ZM193.715 37.4911H213.149V44.423H193.715V37.4911ZM233 12V54H225.321V12H233Z" fill="#00FFA3"/>
<path d="M47.9197 54H40.9993L51.544 23.4545H59.8665L70.3963 54H63.4759L55.8246 30.4347H55.5859L47.9197 54ZM47.4872 41.9936H63.8338V47.0348H47.4872V41.9936Z" fill="white"/>
<path d="M114.655 52V21.4545H126.706C129.013 21.4545 130.982 21.8672 132.612 22.6925C134.253 23.5078 135.501 24.6662 136.356 26.1676C137.221 27.6591 137.653 29.4141 137.653 31.4325C137.653 33.4609 137.216 35.206 136.341 36.6676C135.466 38.1193 134.198 39.233 132.538 40.0085C130.887 40.7841 128.888 41.1719 126.542 41.1719H118.473V35.9815H125.498C126.731 35.9815 127.755 35.8125 128.57 35.4744C129.386 35.1364 129.992 34.6293 130.39 33.9531C130.798 33.277 131.001 32.4368 131.001 31.4325C131.001 30.4183 130.798 29.5632 130.39 28.8672C129.992 28.1712 129.381 27.6442 128.555 27.2862C127.74 26.9183 126.711 26.7344 125.468 26.7344H121.113V52H114.655ZM131.151 38.0994L138.742 52H131.613L124.185 38.0994H131.151ZM148.675 21.4545V52H142.217V21.4545H148.675ZM170.559 30.2393C170.44 29.0362 169.928 28.1016 169.023 27.4354C168.118 26.7692 166.89 26.4361 165.339 26.4361C164.285 26.4361 163.395 26.5852 162.669 26.8835C161.943 27.1719 161.387 27.5746 160.999 28.0916C160.621 28.6087 160.432 29.1953 160.432 29.8516C160.412 30.3984 160.526 30.8757 160.775 31.2834C161.034 31.6911 161.387 32.044 161.834 32.3423C162.281 32.6307 162.798 32.8842 163.385 33.103C163.972 33.3118 164.598 33.4908 165.264 33.6399L168.009 34.2962C169.341 34.5945 170.564 34.9922 171.678 35.4893C172.791 35.9865 173.756 36.598 174.571 37.3239C175.387 38.0497 176.018 38.9048 176.465 39.8892C176.923 40.8736 177.156 42.0021 177.166 43.2749C177.156 45.1442 176.679 46.7649 175.735 48.1371C174.8 49.4993 173.448 50.5582 171.678 51.3139C169.918 52.0597 167.795 52.4325 165.309 52.4325C162.843 52.4325 160.695 52.0547 158.866 51.299C157.046 50.5433 155.624 49.4247 154.6 47.9432C153.586 46.4517 153.054 44.6072 153.004 42.4098H159.254C159.323 43.4339 159.617 44.2891 160.134 44.9751C160.661 45.6513 161.362 46.1634 162.237 46.5114C163.122 46.8494 164.121 47.0185 165.235 47.0185C166.328 47.0185 167.278 46.8594 168.083 46.5412C168.899 46.223 169.53 45.7805 169.977 45.2138C170.425 44.647 170.649 43.9957 170.649 43.2599C170.649 42.5739 170.445 41.9972 170.037 41.5298C169.639 41.0625 169.053 40.6648 168.277 40.3366C167.512 40.0085 166.572 39.7102 165.458 39.4418L162.132 38.6065C159.557 37.9801 157.524 37.0007 156.032 35.6683C154.541 34.3359 153.8 32.5412 153.81 30.2841C153.8 28.4347 154.292 26.8189 155.286 25.4368C156.291 24.0547 157.668 22.9759 159.418 22.2003C161.168 21.4247 163.156 21.0369 165.384 21.0369C167.651 21.0369 169.629 21.4247 171.32 22.2003C173.02 22.9759 174.343 24.0547 175.287 25.4368C176.232 26.8189 176.719 28.4197 176.749 30.2393H170.559Z" fill="white"/>
<path d="M37.0703 14V54H28.8672L12.9492 30.9141H12.6953V54H3.02734V14H11.3477L27.0898 37.0469H27.4219V14H37.0703Z" fill="white"/>
</svg>
