<svg width="48" height="49" viewBox="0 0 48 49" fill="none" xmlns="http://www.w3.org/2000/svg">
<circle cx="24" cy="24.7402" r="24" fill="#0E121C"/>
<path d="M25.6601 23.5875C28.2281 20.8144 30.7834 18.054 33.3691 15.2606C33.2526 15.253 33.1842 15.2454 33.1158 15.2454C32.6575 15.2454 32.1991 15.253 31.7407 15.2403C31.571 15.2378 31.4596 15.2935 31.3481 15.4151C29.2208 17.7197 27.0884 20.0167 24.9611 22.3187C24.9181 22.3643 24.8978 22.4327 24.8598 22.5061C24.7585 22.3744 24.7079 22.3137 24.6597 22.2503C22.9528 19.9685 21.2434 17.6867 19.5415 15.4024C19.4503 15.2834 19.3592 15.2428 19.2173 15.2428C17.2369 15.2454 15.259 15.2454 13.2786 15.2454C13.2203 15.2454 13.1595 15.2555 13.0709 15.2631C15.8288 18.9505 18.5614 22.6049 21.3016 26.2669C18.5412 29.2502 15.7908 32.2209 13 35.2346C13.5724 35.2346 14.0713 35.2245 14.5727 35.2397C14.788 35.2473 14.9323 35.1789 15.0767 35.0193C17.0292 32.9021 18.9869 30.79 20.9445 28.6779C21.3396 28.2499 21.7347 27.827 22.1399 27.3914C22.2108 27.4825 22.2741 27.5636 22.3349 27.6446C24.1862 30.1189 26.0374 32.5906 27.8836 35.07C27.9774 35.1941 28.0736 35.2371 28.2281 35.2371C30.1933 35.2321 32.156 35.2346 34.1213 35.2321C34.1896 35.2321 34.258 35.227 34.3644 35.2219C31.4494 31.3269 28.5598 27.4623 25.6601 23.5875ZM31.414 33.8518C30.5707 33.8518 29.7273 33.8569 28.884 33.8442C28.7878 33.8442 28.6586 33.7835 28.6004 33.7075C25.265 29.2578 21.9347 24.8057 18.6019 20.3535C17.7232 19.1784 16.8444 18.0033 15.9656 16.8257C15.9225 16.77 15.8845 16.7117 15.8187 16.618C16.7785 16.618 17.6877 16.6129 18.5969 16.6256C18.6779 16.6256 18.7792 16.7016 18.8324 16.7725C20.2 18.5908 21.5599 20.4143 22.9224 22.2352L30.4212 32.2564C30.8087 32.773 31.1962 33.2896 31.6014 33.8341C31.5204 33.8417 31.4672 33.8518 31.414 33.8518Z" fill="#F2F3F8"/>
</svg>
