<svg width="40" height="41" viewBox="0 0 40 41" fill="none" xmlns="http://www.w3.org/2000/svg">
<circle cx="20" cy="20.502" r="20" fill="#F0F2FA"/>
<path d="M10.4059 17.2133H14.6252V29.9105H10.4059V17.2133ZM12.5438 11.0928C11.0997 11.0928 10.1562 12.0408 10.1562 13.2852C10.1562 14.5039 11.0721 15.4795 12.4886 15.4795H12.5155C13.9872 15.4795 14.9037 14.5039 14.9037 13.2852C14.876 12.0408 13.9872 11.0928 12.5438 11.0928ZM24.9846 16.9151C22.745 16.9151 21.7416 18.1469 21.1819 19.0109V17.2133H16.9614C17.0172 18.4045 16.9614 29.9105 16.9614 29.9105H21.1819V22.8195C21.1819 22.4397 21.2095 22.0613 21.3206 21.7893C21.6261 21.0311 22.3205 20.246 23.4853 20.246C25.0136 20.246 25.6239 21.4109 25.6239 23.117V29.9104H29.8438V22.6296C29.8438 18.7297 27.7624 16.9151 24.9846 16.9151Z" fill="#0F131D"/>
</svg>
