<svg width="40" height="41" viewBox="0 0 40 41" fill="none" xmlns="http://www.w3.org/2000/svg">
<circle cx="20" cy="20.502" r="20" fill="#F0F2FA"/>
<path d="M22.259 19.1827C24.5428 16.6869 26.8153 14.2025 29.1149 11.6885C29.0113 11.6816 28.9505 11.6748 28.8896 11.6748C28.482 11.6748 28.0743 11.6816 27.6667 11.6702C27.5158 11.668 27.4167 11.7181 27.3176 11.8275C25.4257 13.9016 23.5293 15.9689 21.6374 18.0408C21.5991 18.0818 21.5811 18.1434 21.5473 18.2095C21.4572 18.091 21.4122 18.0362 21.3694 17.9793C19.8514 15.9256 18.3311 13.872 16.8176 11.8161C16.7365 11.709 16.6554 11.6725 16.5293 11.6725C14.768 11.6748 13.009 11.6748 11.2477 11.6748C11.1959 11.6748 11.1419 11.6839 11.0631 11.6908C13.5158 15.0094 15.9459 18.2984 18.3829 21.5942C15.9279 24.2792 13.482 26.9528 11 29.6651C11.509 29.6651 11.9527 29.656 12.3986 29.6697C12.5901 29.6765 12.7185 29.615 12.8468 29.4714C14.5833 27.5659 16.3243 25.665 18.0653 23.7641C18.4167 23.3789 18.768 22.9982 19.1284 22.6062C19.1914 22.6882 19.2477 22.7612 19.3018 22.8341C20.9482 25.061 22.5946 27.2855 24.2365 29.5169C24.3198 29.6286 24.4054 29.6674 24.5428 29.6674C26.2905 29.6628 28.036 29.6651 29.7838 29.6628C29.8446 29.6628 29.9054 29.6583 30 29.6537C27.4077 26.1482 24.8378 22.67 22.259 19.1827ZM27.3761 28.4206C26.6261 28.4206 25.8761 28.4252 25.1261 28.4138C25.0405 28.4138 24.9257 28.3591 24.8739 28.2907C21.9077 24.286 18.9459 20.2791 15.982 16.2721C15.2005 15.2145 14.4189 14.1569 13.6374 13.0971C13.5991 13.0469 13.5653 12.9945 13.5068 12.9102C14.3604 12.9102 15.1689 12.9056 15.9775 12.917C16.0495 12.917 16.1396 12.9854 16.1869 13.0492C17.4032 14.6857 18.6126 16.3268 19.8243 17.9656L26.4932 26.9847C26.8378 27.4496 27.1824 27.9146 27.5428 28.4047C27.4707 28.4115 27.4234 28.4206 27.3761 28.4206Z" fill="#0F131D"/>
</svg>
