<?xml version="1.0" encoding="UTF-8"?>
<svg id="Layer_2" data-name="Layer 2" xmlns="http://www.w3.org/2000/svg" viewBox="0 0 14.73 13.48">
  <defs>
    <style>
      .cls-1 {
        fill: #00ffa3;
        stroke-width: 0px;
      }
    </style>
  </defs>
  <g id="Layer_1-2" data-name="Layer 1">
    <g>
      <path class="cls-1" d="m13.65,2.13v-.23L9.1.2l-.04-.02-.5.19L7.61.02l-.04-.02L2.97,1.72v.28l-1.49.56v.28l-1.48.56v3.55c0,1.52.44,2.9,1.3,4.1.86,1.2,1.96,2.01,3.26,2.42h.04s.04,0,.04,0c.7-.22,1.33-.56,1.9-1.01.53-.21,1.03-.49,1.49-.84.02,0,.05-.02.07-.03.06.03.13.05.2.08.55.41,1.15.72,1.81.93h.04s.04,0,.04,0c1.3-.41,2.4-1.22,3.26-2.42.86-1.2,1.3-2.58,1.3-4.1v-3.55l-1.08-.4Zm.83,3.96c0,1.47-.42,2.8-1.25,3.95-.82,1.14-1.86,1.92-3.09,2.32-.33-.11-.65-.25-.96-.41,1.26-.42,2.33-1.22,3.18-2.39.86-1.2,1.3-2.58,1.3-4.1v-3.06l.83.31v3.38Zm-7.08,5.66c-.06.04-.12.08-.18.11.04-.04.08-.1.12-.14.03-.03.06-.07.08-.1.03-.03.05-.07.08-.1.05-.06.1-.12.16-.19.03-.03.05-.06.08-.1,0,0,.01-.01.02-.02.02-.03.04-.05.06-.07,0,0,.01-.01.02-.02.02-.02.04-.04.06-.07,0-.01.01-.02.02-.03.85-1.19,1.28-2.56,1.28-4.06v-3.55l-2.63-.99-.18-.07-.18-.07-1.02-.38-.18-.07-.18-.07-.18-.07-.04-.02-1.38.52-.13.05-.12.05-1.24.46v-.02l1.24-.46.12-.05.13-.05,2.86-1.07.25.09.18.07.18.07,1.02.38.18.07.18.07,2.36.88v3.38c0,1.47-.42,2.79-1.25,3.95-.32.44-.67.81-1.05,1.14-.03.02-.06.05-.08.07,0,0,0,0-.01,0-.03.02-.06.05-.09.08,0,0,0,0,0,0-.02.01-.03.03-.05.04-.01.01-.03.03-.04.04-.1.08-.21.14-.31.21-.04.03-.09.05-.13.08Zm-1.49.84c-.41.26-.85.49-1.32.64-1.23-.4-2.27-1.18-3.09-2.32-.83-1.15-1.25-2.48-1.25-3.95v-3.38l1.23-.46.13-.05.12-.05,1.24-.46.12-.05.13-.05,1.23-.46.14-.05.05.02.18.07,1.02.38.18.07.18.07,2.74,1.03v3.38c0,1.44-.41,2.75-1.22,3.89-.01.02-.02.04-.03.06-.01.02-.03.03-.04.05-.01.02-.03.03-.04.05-.01.02-.02.03-.04.04-.01.02-.03.04-.05.05-.03.03-.05.06-.08.1-.06.07-.12.15-.18.22-.03.03-.05.07-.08.1-.03.03-.05.07-.08.1-.22.23-.45.44-.69.63-.11.09-.24.17-.36.25-.04.03-.09.05-.13.08ZM3.22,1.89L7.57.27l.63.23.18.07.18.07,1.03.38.18.07.18.07,1.98.74v3.38c0,1.47-.42,2.8-1.25,3.95-.55.77-1.21,1.36-1.95,1.79.24-.25.46-.51.67-.8.86-1.2,1.3-2.58,1.3-4.1v-3.55l-2.26-.84-.18-.07-.18-.07-1.02-.38-.18-.07-.18-.07-.56-.21-.04-.02-2.86,1.07v-.02ZM9.05.45l1.03.38,3.32,1.24v3.38c0,1.47-.42,2.8-1.25,3.95-.82,1.14-1.86,1.92-3.09,2.32-.22-.07-.43-.17-.63-.26.95-.46,1.77-1.15,2.44-2.09.86-1.2,1.3-2.58,1.3-4.1V1.72l-2.05-.77-.18-.07-1.03-.38.15-.05Z"/>
      <path class="cls-1" d="m5.79,5.73s-.08-.05-.13-.07c-.04-.02-.08-.05-.12-.07-.25-.13-.53-.21-.83-.23-.04,0-.08-.01-.12-.01-.01,0-.03,0-.04,0-.03,0-.05,0-.08,0-.45.02-.86.16-1.2.41-.04.03-.08.07-.12.1-.04.03-.08.06-.12.1-.43.4-.7.97-.7,1.61,0,1.22.99,2.22,2.22,2.22.02,0,.04,0,.06,0,.05,0,.1-.01.15-.02s.1,0,.15-.02c.29-.05.55-.15.79-.29.04-.02.07-.04.11-.06.03-.02.06-.05.1-.08.1-.08.2-.17.29-.27.03-.03.06-.07.09-.11.03-.04.06-.07.09-.11.25-.36.39-.79.39-1.26,0-.76-.38-1.43-.97-1.83Zm.45,2.79s-.05.1-.08.14c-.03.04-.06.07-.09.11-.09.12-.2.22-.31.31-.03.03-.06.06-.1.08-.03.02-.07.04-.11.07-.25.15-.54.25-.85.28-.05,0-.1.01-.15.02,0,0-.01,0-.02,0-.05,0-.1-.01-.15-.02-1.01-.08-1.81-.92-1.81-1.95,0-.48.18-.92.47-1.27.04-.04.07-.09.11-.13.04-.04.08-.06.12-.1.32-.27.73-.44,1.19-.46.02,0,.05,0,.07,0,.02,0,.04,0,.05,0,.04,0,.08,0,.13.01.3.03.57.12.82.26.04.02.09.05.12.08.04.03.08.07.13.1.43.36.72.9.72,1.5,0,.35-.1.68-.26.96Z"/>
      <polygon class="cls-1" points="4.51 6.18 4.41 6.18 4.41 8.12 4.66 8.12 4.66 7.1 4.66 6.56 4.66 6.18 4.63 6.18 4.51 6.18"/>
      <rect class="cls-1" x="4.41" y="8.57" width=".25" height=".25"/>
    </g>
  </g>
</svg>