<?xml version="1.0" encoding="UTF-8"?>
<svg id="Layer_2" data-name="Layer 2" xmlns="http://www.w3.org/2000/svg" viewBox="0 0 13.24 13.7">
  <defs>
    <style>
      .cls-1 {
        fill: #00ffa3;
        stroke-width: 0px;
      }
    </style>
  </defs>
  <g id="Layer_1-2" data-name="Layer 1">
    <g>
      <path class="cls-1" d="m9.21,3.13c.41,0,.75-.34.75-.75s-.34-.75-.75-.75-.75.34-.75.75.33.75.75.75Zm0-1.37c.34,0,.62.28.62.62s-.28.62-.62.62-.62-.28-.62-.62.28-.62.62-.62Z"/>
      <path class="cls-1" d="m9.21,3.01c.34,0,.62-.28.62-.62s-.28-.62-.62-.62-.62.28-.62.62.28.62.62.62Zm0-1.12c.27,0,.5.22.5.5s-.22.5-.5.5-.5-.22-.5-.5.22-.5.5-.5Z"/>
      <path class="cls-1" d="m9.19,10.67c-.41,0-.75.34-.75.75s.33.75.75.75.75-.34.75-.75-.34-.75-.75-.75Zm0,1.37c-.34,0-.62-.28-.62-.62s.28-.62.62-.62.62.28.62.62-.28.62-.62.62Z"/>
      <path class="cls-1" d="m9.19,10.79c-.34,0-.62.28-.62.62s.28.62.62.62.62-.28.62-.62-.28-.62-.62-.62Zm0,1.12c-.27,0-.5-.22-.5-.5s.22-.5.5-.5.5.22.5.5-.22.5-.5.5Z"/>
      <path class="cls-1" d="m2.66,6.1c-.41,0-.75.34-.75.75s.34.75.75.75.75-.34.75-.75-.33-.75-.75-.75Zm0,1.37c-.34,0-.62-.28-.62-.62s.28-.62.62-.62.62.28.62.62-.28.62-.62.62Z"/>
      <path class="cls-1" d="m2.66,6.23c-.34,0-.62.28-.62.62s.28.62.62.62.62-.28.62-.62-.28-.62-.62-.62Zm0,1.12c-.27,0-.5-.22-.5-.5s.22-.5.5-.5.5.22.5.5-.22.5-.5.5Z"/>
    </g>
    <path class="cls-1" d="m11.95,6.86h0s0-.02,0-.02l1.22-2.11.07-.12-.07-.12-1.22-2.11-.07-.12h-2.21s.03.09.03.14c0,.04-.01.07-.02.11h2.06l1.22,2.11-1.22,2.11h-2.43v-.02s-.01-.69-.01-.69c0-.14-.05-.26-.15-.36-.1-.1-.22-.15-.36-.15h-.58v-.3c0-.2-.04-.37-.1-.55,0,0,0-.01,0-.02,0-.01,0-.02,0-.03l1-1.72c-.1-.02-.19-.07-.25-.14l-.92,1.59c-.05-.08-.09-.17-.16-.25-.3-.31-.69-.47-1.14-.47s-.82.16-1.13.47c-.07.07-.14.15-.19.24l-1.12-1.94L5.39.25h2.43l1.03,1.78c.06-.06.14-.1.22-.12l-1.03-1.79-.07-.12h-2.72l-.07.12-1.22,2.11h0s-.02,0-.02,0H1.36l-.07.12L.07,4.48l-.07.12.07.12,1.22,2.11h0s0,.02,0,.02L.07,8.97l-.07.12.07.12,1.22,2.11.07.12h2.6s1.22,2.12,1.22,2.12l.07.12h2.72l.07-.12.98-1.69c-.08-.03-.15-.08-.21-.14l-.99,1.71h-2.43l-1.22-2.11.92-1.59h3.03l.75,1.29c.08-.06.17-.1.27-.11l-.68-1.18h.32c.14,0,.26-.05.36-.14.1-.09.15-.21.15-.36v-2.27h2.45l1.22,2.11-1.22,2.11h-2.11c.03.07.05.14.05.21,0,.01,0,.02,0,.04h2.2l.07-.12,1.22-2.11.07-.12-.07-.12-1.22-2.11ZM3.94,11.2H1.51l-1.22-2.11,1.22-2.11h.68s-.03-.09-.03-.13c0-.05.01-.1.03-.14h-.68L.29,4.6l1.22-2.11h2.43l1.21,2.09h0s0,0,0,0c0,0,0,0,0,0,0,.02-.01.05-.02.08-.06.16-.09.34-.09.52v.3h-.59c-.14,0-.26.05-.36.15-.09.1-.14.22-.14.36v.71h-.82s.03.09.03.14c0,.05-.01.09-.03.13h.81v.02s.01,2.25.01,2.25c0,.14.05.26.14.35.09.1.21.14.36.14h.33l-.84,1.45Zm5.1-4.96v3.01c0,.07-.02.13-.07.18-.05.05-.11.07-.19.07h-4.33c-.08,0-.13-.02-.18-.07-.05-.05-.07-.1-.07-.18v-3.25c0-.08.02-.14.07-.19.05-.05.1-.07.18-.07h.84v-.55c0-.1.03-.19.05-.28.01-.05.01-.11.03-.16,0,0,0-.02,0-.02.02-.05.04-.09.07-.13.02-.04.05-.08.08-.12.05-.08.09-.16.15-.23.26-.26.57-.39.95-.39s.71.13.96.39c.07.07.1.16.15.23.02.04.06.07.08.11.02.04.05.09.06.14,0,0,0,.02,0,.02.01.03.01.07.02.1.03.11.06.22.06.34v.55h.83c.07,0,.13.02.18.07.05.05.08.11.08.18v.24Z"/>
    <g>
      <path class="cls-1" d="m6.59,8.38c-.19,0-.37-.08-.52-.23-.15-.16-.23-.33-.23-.52s.08-.37.23-.53c.31-.32.73-.32,1.05,0,.16.16.24.34.24.53s-.08.37-.24.52c-.16.15-.33.23-.53.23Zm0-1.28c-.12,0-.24.05-.35.17-.11.11-.16.23-.16.35s.05.24.16.35c.22.22.48.22.7,0,.11-.11.17-.22.17-.35s-.05-.24-.17-.35c-.11-.11-.23-.17-.35-.17Z"/>
      <path class="cls-1" d="m7.7,5.74h-2.2v-.56c0-.3.11-.56.32-.78.21-.22.47-.33.77-.33s.56.11.77.33c.21.21.32.47.34.77v.57Zm-1.95-.25h1.7v-.31c-.01-.23-.1-.43-.27-.6-.17-.17-.36-.25-.59-.25s-.43.08-.59.25c-.17.17-.25.37-.25.6v.31Z"/>
    </g>
  </g>
</svg>