<?xml version="1.0" encoding="UTF-8"?>
<svg id="Layer_2" data-name="Layer 2" xmlns="http://www.w3.org/2000/svg" viewBox="0 0 15.73 13.77">
  <defs>
    <style>
      .cls-1 {
        fill: #00ffa3;
        stroke-width: 0px;
      }
    </style>
  </defs>
  <g id="Layer_1-2" data-name="Layer 1">
    <path class="cls-1" d="m6.3.25c.29,0,.54.1.73.3.2.2.3.45.3.73v3.55h-1.96v.3h1.96v3.02h-2.09l-.83-1.67h-1.98v.31h1.79l.83,1.65h2.27v4.53c-.06.11-.14.21-.25.29-.21.17-.47.25-.78.25h-1.86c-.19,0-.37-.04-.53-.12s-.29-.2-.37-.36l-1.61-2.95h1.21l.92,1.68h1.81v-.31h-1.61l-.9-1.68h-1.61L.39,7.4c-.06-.07-.09-.15-.11-.24-.02-.09-.03-.18-.03-.27,0,0,.05-.18.14-.52l1.34-2.36h1.64l.92-1.7h1.62v-.3h-1.79l-.92,1.68h-1.3L3.53.73c.08-.15.21-.27.37-.35s.34-.13.53-.13h1.86m0-.25h-1.86c-.23,0-.44.05-.64.15-.21.11-.37.26-.48.45l-1.63,2.97-.19.34L.17,6.24l-.02.03v.03c-.16.54-.16.55-.16.59,0,.1.01.21.03.32.03.14.08.26.17.35l1.31,2.33.07.13h.01l.1.18,1.61,2.95c.11.2.27.36.48.47.2.1.41.15.64.15h1.86c.37,0,.68-.1.94-.31.12-.1.23-.22.31-.36l.03-.06V1.28c0-.35-.12-.65-.37-.9-.25-.25-.55-.38-.91-.38h0Z"/>
    <path class="cls-1" d="m11.3.25c.19,0,.36.04.53.13s.29.2.37.35l1.62,2.97h-1.3l-.92-1.68h-1.79v.3h1.62l.92,1.7h1.64l1.34,2.36c.09.34.14.51.14.52,0,.08,0,.17-.03.27-.02.09-.06.17-.11.24l-1.34,2.37h-1.61l-.9,1.68h-1.61v.31h1.81l.92-1.68h1.22l-1.61,2.95c-.08.16-.21.28-.37.36s-.34.12-.53.12h-1.86c-.31,0-.57-.08-.78-.25-.1-.08-.18-.18-.25-.29v-4.53h2.27l.83-1.65h1.79v-.31h-1.98l-.83,1.67h-2.09v-3.02h1.96v-.3h-1.96V1.28c0-.28.1-.53.3-.73.2-.2.44-.3.73-.3h1.86m0-.25h-1.86c-.36,0-.67.13-.91.38-.24.25-.37.55-.37.9v11.76l.03.06c.08.14.19.26.31.36.26.21.57.31.94.31h1.86c.23,0,.44-.05.64-.15.21-.1.38-.26.49-.47l1.61-2.95.1-.18h.01l.07-.13,1.34-2.37c.06-.06.11-.18.14-.31.02-.11.03-.22.03-.32,0-.04,0-.05-.15-.59v-.03s-.02-.03-.02-.03l-1.32-2.32-.19-.34-1.62-2.97c-.11-.2-.27-.35-.48-.46-.2-.1-.42-.15-.64-.15h0Z"/>
  </g>
</svg>