<?xml version="1.0" encoding="UTF-8"?>
<svg id="Layer_2" data-name="Layer 2" xmlns="http://www.w3.org/2000/svg" viewBox="0 0 13.12 12.85">
  <defs>
    <style>
      .cls-1 {
        fill: none;
      }

      .cls-1, .cls-2 {
        stroke-width: 0px;
      }

      .cls-2 {
        fill: #00ffa3;
      }
    </style>
  </defs>
  <g id="Layer_1-2" data-name="Layer 1">
    <g>
      <path class="cls-1" d="m11.75,4.79l.03-.15c.02-.12.04-.23.05-.31,0-.08.01-.16.01-.23,0-.08,0-.17,0-.25,0-.07-.02-.15-.04-.24l-.05-.17.14-.1.92-.68-.52-.91-1.04.42-.14.06-.12-.1c-.15-.13-.3-.24-.44-.32-.14-.08-.3-.16-.49-.22l-.15-.05-.02-.15-.13-1.1h-1.06s-.15,1.09-.15,1.09l-.02.16-.15.05c-.15.05-.32.12-.49.22-.17.1-.33.21-.47.33l-.12.1-.14-.06-.99-.42-.53.9.86.66.12.09-.02.14-.04.33c-.01.09-.02.17-.02.25,0,.08,0,.17.01.26.01.1.02.19.04.28l.02.15-.12.09-.87.65.53.93,1-.42.15-.06.12.11c.12.11.27.22.45.32.18.1.35.17.49.22l.16.05.02.16.13,1.09h1.06s.14-1.1.14-1.1l.02-.16.16-.05c.16-.05.31-.12.46-.2.15-.09.31-.2.46-.33l.12-.1.14.06,1.01.44.53-.92-.89-.67-.12-.09Zm-2.55.45c-.64,0-1.16-.52-1.16-1.16s.52-1.16,1.16-1.16,1.16.52,1.16,1.16-.52,1.16-1.16,1.16Z"/>
      <path class="cls-1" d="m5.79,6.89l-.12-.1c-.15-.13-.3-.24-.44-.32-.14-.08-.3-.15-.49-.22l-.15-.05-.02-.15-.14-1.1h-1.06l-.15,1.09-.02.16-.15.05c-.15.05-.32.12-.48.22-.17.1-.33.21-.47.33l-.12.1-.14-.06-.99-.42-.53.91.86.65.12.09-.02.14-.04.33c-.01.09-.02.17-.02.25,0,.08,0,.17.02.26.01.1.02.19.04.28l.02.15-.12.09-.87.65.53.93,1-.43.15-.06.12.11c.12.11.27.22.45.31.18.1.35.17.49.21l.16.05.02.16.14,1.09h1.06l.14-1.1.02-.16.16-.05c.16-.05.31-.12.46-.2.15-.09.3-.2.46-.33l.12-.1.14.06,1.01.44.53-.93-.89-.66-.12-.09.03-.15c.02-.12.04-.23.04-.31,0-.08.01-.16.01-.23,0-.08,0-.17,0-.25,0-.07-.02-.15-.04-.24l-.05-.17.14-.1.91-.69-.53-.91-1.04.42-.14.06Zm-2.33,3.91l.28-1.6h-1.08l1.62-2.51-.23,1.92h1.14l-1.74,2.2Z"/>
      <circle class="cls-1" cx="9.21" cy="4.08" r=".91"/>
      <path class="cls-2" d="m5.92,6.57l-.09.04c-.16-.14-.32-.26-.47-.35-.15-.09-.33-.17-.53-.24l-.16-1.32h-1.5l-.18,1.31c-.17.05-.35.13-.53.24-.18.11-.35.22-.51.36l-1.19-.5-.75,1.29,1.04.78c-.02.12-.03.24-.04.33-.01.1-.02.19-.02.28,0,.09,0,.19.02.29s.03.2.04.29l-1.04.78.75,1.31,1.21-.52c.13.12.3.24.5.35.2.11.38.19.54.23l.16,1.31h1.5l.16-1.32c.18-.05.35-.13.52-.23.16-.1.33-.22.49-.36l1.22.53.75-1.31-1.07-.8c.02-.13.04-.24.05-.33s.01-.17.01-.25c0-.09,0-.17,0-.26,0-.09-.02-.19-.05-.3l1.09-.82-.65-1.11-1.15.48-.11-.19Zm1.57.75l-.91.69-.14.1.05.17c.03.09.04.17.04.24,0,.09,0,.17,0,.25,0,.07,0,.15-.01.23,0,.08-.02.19-.04.31l-.03.15.12.09.89.66-.53.93-1.01-.44-.14-.06-.12.1c-.15.13-.31.24-.46.33-.15.09-.3.16-.46.2l-.16.05-.02.16-.14,1.1h-1.06l-.14-1.09-.02-.16-.16-.05c-.15-.04-.31-.11-.49-.21-.18-.1-.33-.2-.45-.31l-.12-.11-.15.06-1,.43-.53-.93.87-.65.12-.09-.02-.15c-.01-.09-.03-.18-.04-.28-.01-.09-.02-.18-.02-.26,0-.08,0-.16.02-.25l.04-.33.02-.14-.12-.09-.86-.65.53-.91.99.42.14.06.12-.1c.14-.12.3-.23.47-.33.17-.1.33-.17.48-.22l.15-.05.02-.16.15-1.09h1.06l.14,1.1.02.15.15.05c.19.06.35.14.49.22.14.08.29.19.44.32l.12.1.14-.06,1.04-.42.53.91Z"/>
      <path class="cls-2" d="m12.07,4.35c0-.09.01-.17.01-.25,0-.09,0-.17,0-.26,0-.09-.02-.19-.05-.3l1.09-.81-.74-1.29-1.24.5c-.16-.14-.32-.26-.47-.35s-.33-.17-.53-.24L9.98,0h-1.5s-.18,1.3-.18,1.3c-.17.05-.35.13-.53.24s-.35.22-.51.35l-1.19-.51-.76,1.28,1.04.79c-.02.12-.03.24-.04.33s-.02.19-.02.28c0,.09,0,.19.02.29.01.1.02.2.04.29l-1.05.78.64,1.13,1.15-.47.1.17.06-.03c.13.13.3.24.5.35.2.11.38.19.54.24l.16,1.31h1.5s.17-1.32.17-1.32c.18-.05.35-.13.52-.23.16-.1.33-.22.49-.35l1.22.53.76-1.31-1.06-.8c.02-.13.04-.24.05-.33Zm.69,1.2l-.53.92-1.01-.44-.14-.06-.12.1c-.15.13-.31.24-.46.33-.15.09-.3.15-.46.2l-.16.05-.02.16-.14,1.1h-1.06s-.13-1.1-.13-1.1l-.02-.16-.16-.05c-.15-.04-.31-.11-.49-.22-.18-.1-.33-.21-.45-.32l-.12-.11-.15.06-1,.42-.53-.93.87-.65.12-.09-.02-.15c-.01-.09-.03-.18-.04-.28-.01-.09-.01-.18-.01-.26,0-.08,0-.16.02-.25l.04-.33.02-.14-.12-.09-.86-.66.53-.9.99.42.14.06.12-.1c.14-.12.3-.23.47-.33.17-.1.33-.17.49-.22l.15-.05.02-.16.15-1.09h1.06s.13,1.11.13,1.11l.02.15.15.05c.19.07.35.14.49.22.14.08.29.19.44.32l.12.1.14-.06,1.04-.42.52.91-.92.68-.14.1.05.17c.03.09.04.17.04.24,0,.09,0,.17,0,.25,0,.07,0,.15-.01.23,0,.08-.02.19-.05.31l-.03.15.12.09.89.67Z"/>
      <polygon class="cls-2" points="5.92 6.57 6.03 6.76 7.18 6.27 7.07 6.1 5.92 6.57"/>
      <path class="cls-2" d="m5.2,8.6h-1.14l.23-1.92-1.62,2.51h1.08l-.28,1.6,1.74-2.2Zm-1.29-.88l-.13,1.13h.9l-.81,1.02.16-.92h-.92l.79-1.22Z"/>
      <path class="cls-2" d="m9.21,2.92c-.64,0-1.16.52-1.16,1.16s.52,1.16,1.16,1.16,1.16-.52,1.16-1.16-.52-1.16-1.16-1.16Zm0,2.07c-.5,0-.91-.41-.91-.91s.41-.91.91-.91.91.41.91.91-.41.91-.91.91Z"/>
    </g>
  </g>
</svg>