<?xml version="1.0" encoding="UTF-8"?>
<svg id="Layer_2" data-name="Layer 2" xmlns="http://www.w3.org/2000/svg" viewBox="0 0 13.55 13.44">
  <defs>
    <style>
      .cls-1 {
        fill: #00ffa3;
        stroke-width: 0px;
      }
    </style>
  </defs>
  <g id="Layer_1-2" data-name="Layer 1">
    <g>
      <g>
        <g>
          <path class="cls-1" d="m6.79,2.89l-.06-.03-2.48-1.41,2.54-1.45.06.03,2.48,1.41-2.54,1.45Zm-2.04-1.45l2.04,1.16,2.04-1.16L6.79.29l-2.04,1.16Z"/>
          <polygon class="cls-1" points="6.79 5.66 4.3 4.24 4.3 1.45 4.55 1.45 4.55 4.1 6.79 5.37 9.03 4.1 9.03 1.45 9.28 1.45 9.28 4.24 6.79 5.66"/>
          <rect class="cls-1" x="6.67" y="2.75" width=".25" height="2.73"/>
        </g>
        <g>
          <path class="cls-1" d="m6.79,10.67l-2.54-1.45,2.54-1.45.06.03,2.48,1.41-2.54,1.45Zm-2.04-1.45l2.04,1.16,2.04-1.16-2.04-1.16-2.04,1.16Z"/>
          <polygon class="cls-1" points="6.79 13.44 4.3 12.02 4.3 9.23 4.55 9.23 4.55 11.88 6.79 13.15 9.03 11.88 9.03 9.23 9.28 9.23 9.28 12.02 6.79 13.44"/>
          <rect class="cls-1" x="6.67" y="10.53" width=".25" height="2.73"/>
        </g>
        <g>
          <path class="cls-1" d="m2.54,6.78l-.06-.03-2.48-1.41,2.54-1.45.06.03,2.48,1.41-2.54,1.45Zm-2.04-1.45l2.04,1.16,2.04-1.16-2.04-1.16-2.04,1.16Z"/>
          <polygon class="cls-1" points="2.54 9.55 .05 8.13 .05 5.34 .3 5.34 .3 7.99 2.54 9.26 4.79 7.99 4.79 5.34 5.04 5.34 5.04 8.13 2.54 9.55"/>
          <rect class="cls-1" x="2.42" y="6.64" width=".25" height="2.73"/>
        </g>
        <g>
          <path class="cls-1" d="m11.01,6.78l-.06-.03-2.48-1.41,2.54-1.45.06.03,2.48,1.41-2.54,1.45Zm-2.04-1.45l2.04,1.16,2.04-1.16-2.04-1.16-2.04,1.16Z"/>
          <polygon class="cls-1" points="11.01 9.55 8.51 8.13 8.51 5.34 8.76 5.34 8.76 7.99 11.01 9.26 13.25 7.99 13.25 5.34 13.5 5.34 13.5 8.13 11.01 9.55"/>
          <rect class="cls-1" x="10.88" y="6.64" width=".25" height="2.73"/>
        </g>
      </g>
      <g>
        <path class="cls-1" d="m2.82,5.74h-.25v-2.24c0-.49.4-.9.9-.9h2.19v.25h-2.19c-.36,0-.65.29-.65.65v2.24Z"/>
        <path class="cls-1" d="m10.98,5.72h-.25v-2.19c0-.36-.29-.65-.65-.65h-2.24v-.25h2.24c.49,0,.9.4.9.9v2.19Z"/>
        <path class="cls-1" d="m10.09,10.83h-2.19v-.25h2.19c.36,0,.65-.29.65-.65v-.64h.25v.64c0,.49-.4.9-.9.9Z"/>
        <path class="cls-1" d="m5.7,10.81h-2.24c-.49,0-.9-.4-.9-.9v-.59h.25v.59c0,.36.29.65.65.65h2.24v.25Z"/>
      </g>
    </g>
  </g>
</svg>