<?xml version="1.0" encoding="UTF-8"?>
<svg id="Layer_2" data-name="Layer 2" xmlns="http://www.w3.org/2000/svg" viewBox="0 0 12.56 12.28">
  <defs>
    <style>
      .cls-1 {
        fill: #00ffa3;
        stroke-width: 0px;
      }
    </style>
  </defs>
  <g id="Layer_1-2" data-name="Layer 1">
    <path class="cls-1" d="m.25,4.67h-.25V1.91C0,.86.86,0,1.91,0h2.68v.25H1.91C1,.25.25,1,.25,1.91v2.75Z"/>
    <path class="cls-1" d="m12.56,4.63h-.25V1.95c0-.92-.75-1.66-1.66-1.66h-2.75V.04h2.75c1.05,0,1.91.86,1.91,1.91v2.68Z"/>
    <path class="cls-1" d="m10.65,12.28h-2.68v-.25h2.68c.92,0,1.66-.75,1.66-1.66v-2.75h.25v2.75c0,1.05-.86,1.91-1.91,1.91Z"/>
    <path class="cls-1" d="m4.67,12.24H1.91c-1.05,0-1.91-.86-1.91-1.91v-2.68h.25v2.68c0,.92.75,1.66,1.66,1.66h2.75v.25Z"/>
    <path class="cls-1" d="m5.51,5.41h-3.46V1.95h3.46v3.46Zm-3.21-.25h2.96v-2.96h-2.96v2.96Z"/>
    <path class="cls-1" d="m5.51,10.33h-3.46v-3.46h3.46v3.46Zm-3.21-.25h2.96v-2.96h-2.96v2.96Z"/>
    <path class="cls-1" d="m10.52,5.41h-3.46V1.95h3.46v3.46Zm-3.21-.25h2.96v-2.96h-2.96v2.96Z"/>
    <g>
      <path class="cls-1" d="m8.79,10.81c-1.22,0-2.22-.99-2.22-2.22s.99-2.22,2.22-2.22,2.22.99,2.22,2.22-.99,2.22-2.22,2.22Zm0-4.18c-1.08,0-1.97.88-1.97,1.97s.88,1.97,1.97,1.97,1.97-.88,1.97-1.97-.88-1.97-1.97-1.97Z"/>
      <rect class="cls-1" x="8.66" y="7.22" width=".25" height="1.94"/>
      <rect class="cls-1" x="8.66" y="9.62" width=".25" height=".25"/>
    </g>
  </g>
</svg>