<?xml version="1.0" encoding="UTF-8"?>
<svg id="Layer_2" data-name="Layer 2" xmlns="http://www.w3.org/2000/svg" viewBox="0 0 15.12 14.91">
  <defs>
    <style>
      .cls-1 {
        fill: #00ffa3;
        stroke-width: 0px;
      }
    </style>
  </defs>
  <g id="Layer_1-2" data-name="Layer 1">
    <path class="cls-1" d="m15.05,10.34l-.74-1.28c.22-.18.36-.45.36-.75s-.15-.57-.37-.76l.59-.99-.21-.13-.58.98c-.13-.06-.26-.09-.41-.09-.5,0-.9.38-.97.87h-1.43l-1.17-2.02h0s0-.02,0-.02l.7-1.21c.12.05.25.08.39.08.55,0,.99-.44.99-.99h1.43v-.25h-1.48c-.11-.42-.48-.75-.94-.75-.13,0-.24.03-.35.07l-.72-1.25,1.03-1.73-.21-.13-1.02,1.72h-1.41c-.12-.41-.49-.72-.94-.72-.55,0-.99.44-.99.99,0,.27.11.51.28.69l-.69,1.19h0s0,0,0,0h-2.48l-.07.12-1.17,2.03h0s-2.44,0-2.44,0v.25h2.44l1.17,2.02h0s-.71,1.24-.71,1.24c-.09-.02-.17-.05-.26-.05-.55,0-.99.44-.99.99s.44.99.99.99c.09,0,.18-.03.26-.05l.77,1.27.21-.13-.75-1.24c.29-.17.5-.48.5-.84s-.21-.67-.5-.84l.7-1.21h1.43c.05.5.46.9.97.9.14,0,.28-.03.4-.09l.71,1.23h0s0,0,0,0l-1.17,2.03-.07.12.07.12,1.17,2.03.07.12h2.63l.07-.12.75-1.3c.1.03.2.06.31.06.48,0,.86-.34.95-.79h1.67l.07-.12,1.17-2.03.07-.12-.07-.12Zm-11.66.14c0,.41-.33.74-.74.74s-.74-.33-.74-.74.33-.74.74-.74.74.33.74.74Zm9.58-2.29c.06-.35.35-.62.72-.62.1,0,.2.02.28.06.08.03.15.08.21.14.15.14.25.33.25.55s-.09.4-.24.54c-.06.06-.13.11-.21.14-.09.04-.19.06-.3.06-.36,0-.65-.27-.72-.61,0-.04-.03-.08-.03-.13,0-.04.02-.08.02-.12Zm-1.98-4.86c.07-.02.14-.05.22-.05.41,0,.74.33.74.74s-.33.74-.74.74c-.09,0-.18-.02-.26-.05-.08-.03-.15-.08-.21-.13-.16-.14-.27-.33-.27-.56,0-.24.12-.44.3-.58.07-.05.14-.09.22-.12Zm-4.15-1.34c0-.41.33-.74.74-.74.31,0,.58.19.69.47.03.08.05.16.05.25,0,0,0,.02,0,.02,0,.41-.33.74-.74.74-.14,0-.27-.05-.38-.12-.07-.05-.14-.1-.19-.17-.1-.13-.17-.28-.17-.45Zm.24.83c.15.09.31.16.5.16.55,0,.99-.44.99-.99,0,0,0-.02,0-.02h1.35l.73,1.27c-.25.18-.42.46-.42.79s.16.59.4.77l-.71,1.22h-2.34l-1.17-2.03.67-1.17Zm-3.24,5.35l-1.17-2.03,1.17-2.03h2.34l1.17,2.03-.73,1.27c-.11-.05-.24-.07-.37-.07-.49,0-.88.36-.96.83h-1.45Zm2.68.85c-.08.03-.18.06-.27.06-.38,0-.68-.29-.72-.65,0-.03-.02-.06-.02-.09,0-.06.02-.11.03-.16.07-.33.36-.58.71-.58.08,0,.16.02.24.05,0,0,.01,0,.02,0,.07.03.14.07.2.12,0,0,.01,0,.02.01.16.14.27.33.27.56s-.1.42-.26.55c-.06.06-.13.1-.21.13Zm.33.08c.23-.18.38-.45.38-.76s-.16-.59-.4-.77l.73-1.27h2.34l1.17,2.03-1.17,2.03h-2.34l-.72-1.25Zm3.06,5.55h-2.34l-1.17-2.03,1.17-2.03h2.34l.68,1.18c-.23.18-.39.45-.39.77,0,.35.19.64.46.81l-.75,1.29Zm1.98-1.91c-.09.31-.36.54-.7.54-.06,0-.12-.02-.18-.04-.08-.02-.16-.06-.23-.1-.2-.13-.33-.35-.33-.6,0-.23.11-.42.27-.56,0,0,.02-.01.03-.02.06-.05.12-.09.19-.11,0,0,.02,0,.03,0,.07-.02.15-.05.23-.05.39,0,.7.31.73.69,0,.02.01.03.01.05,0,.07-.02.13-.04.2Zm1.78-.25h-1.5c-.03-.52-.45-.94-.98-.94-.13,0-.25.03-.36.07l-.67-1.16,1.17-2.03h1.39c.07.48.46.86.97.86.15,0,.29-.04.42-.1l.73,1.26-1.17,2.03Z"/>
  </g>
</svg>