<?xml version="1.0" encoding="UTF-8"?>
<svg id="Layer_2" data-name="Layer 2" xmlns="http://www.w3.org/2000/svg" viewBox="0 0 10.96 13.52">
  <defs>
    <style>
      .cls-1 {
        fill: none;
      }

      .cls-1, .cls-2 {
        stroke-width: 0px;
      }

      .cls-2 {
        fill: #00ffa3;
      }
    </style>
  </defs>
  <g id="Layer_1-2" data-name="Layer 1">
    <g>
      <path class="cls-1" d="m7.09,6.69c0-.1,0-.2,0-.31-.01-.11-.03-.21-.07-.32,0,0,0-.01,0-.02.1-.14.2-.28.28-.42.05-.09.1-.19.14-.29.03-.07.04-.15.03-.23,0-.06-.03-.11-.07-.15-.04-.04-.09-.06-.14-.07-.03,0-.06,0-.1,0-.04,0-.08,0-.12.01-.09.01-.18.04-.26.07-.14.05-.28.11-.41.17-.02,0-.04.02-.06.03.01,0,.02,0,.04-.01.13-.06.27-.11.41-.13.04,0,.08-.01.13-.01.03,0,.05,0,.08,0,.05,0,.09.03.13.06.05.04.06.1.06.16,0,.06-.01.11-.03.17-.03.1-.08.19-.14.28-.02.04-.05.08-.07.11-.25-.42-.61-.69-1.1-.78-.1-.02-.2-.03-.3-.03-.36,0-.7.13-1,.38-.33.28-.52.64-.55,1.07-.04.53.15.96.54,1.32,0,0,0,0,0,0-.14.06-.29.11-.44.13-.02,0-.04,0-.07,0-.03,0-.06,0-.09,0-.11-.02-.17-.1-.17-.21,0-.05,0-.1.02-.14.03-.1.07-.19.12-.28.03-.06.07-.12.11-.17-.09.12-.18.24-.25.37-.06.1-.11.2-.14.31-.02.07-.04.15-.03.22,0,.05.03.09.06.13.04.04.1.07.16.08.04,0,.07.01.11.01.04,0,.08,0,.12,0,.09-.01.17-.03.26-.06.16-.05.31-.12.46-.19,0,0,.01,0,.02,0s.01,0,.02,0c.22.13.47.19.72.2.02,0,.03,0,.05,0,.08,0,.16,0,.24-.02.16-.03.31-.07.46-.15.14-.07.27-.16.39-.28.13-.12.23-.27.31-.43.09-.18.15-.37.16-.57Zm-2.03.75s-.06-.07-.08-.11c-.11-.15-.18-.32-.22-.51-.03-.12-.03-.24-.03-.37,0-.19.05-.37.13-.54.07-.14.15-.26.26-.37.14-.13.29-.22.47-.26.07-.02.15-.03.22-.03.14,0,.28.03.41.1.09.04.16.1.24.17.13.12.23.25.31.41,0,0,0,.01,0,.02-.09.12-.19.23-.3.34-.19.2-.4.39-.61.57-.25.21-.51.4-.79.57,0,0,0,0-.01,0Zm1.55-.05c-.1.12-.21.22-.35.29-.11.06-.23.1-.35.11-.03,0-.06,0-.09,0-.19,0-.37-.06-.53-.16,0,0,0,0,0,0,.05-.03.1-.06.15-.09.1-.07.21-.15.31-.22.14-.1.27-.2.4-.32.1-.09.19-.18.28-.27.05-.05.1-.1.15-.15.11-.1.2-.22.3-.33,0,0,0,0,.01-.01,0,.02,0,.03,0,.04.01.09.02.18.02.27,0,.31-.1.6-.29.85Z"/>
      <path class="cls-1" d="m3.94,7.58s-.01.05-.02.07c.01,0,.02,0,.05,0,.01,0,.03,0,.05,0,.02,0,.05,0,.07-.01-.04-.05-.08-.11-.11-.16-.01.03-.03.07-.04.1Z"/>
      <path class="cls-1" d="m6.27,7.16c-.13.12-.27.23-.41.33-.04.03-.08.05-.11.08.02,0,.04,0,.06,0,.02,0,.05,0,.07,0,.09,0,.18-.04.27-.08.11-.06.2-.13.28-.23.11-.14.18-.29.22-.45l-.08.08c-.09.09-.19.19-.29.28Z"/>
      <path class="cls-1" d="m6.94,5.22h-.06s-.06,0-.09,0c-.02,0-.04,0-.06.01.05.05.1.1.14.15.01-.02.02-.04.03-.07.01-.04.02-.07.04-.1Z"/>
      <path class="cls-1" d="m6.51,5.92c-.05-.09-.12-.16-.2-.24-.05-.05-.11-.1-.18-.13-.1-.05-.21-.07-.32-.07-.05,0-.11,0-.17.02-.14.03-.26.1-.37.21-.09.08-.16.18-.21.3-.07.15-.1.3-.11.46,0,.11,0,.21.02.31.03.13.07.25.14.36.2-.13.4-.28.6-.45.22-.18.41-.36.59-.55.07-.07.14-.15.2-.23Z"/>
      <path class="cls-1" d="m3.98,7.04s0,.02-.01.02c0,0,.01-.01.02-.02,0,0,0,0,0,0Z"/>
      <path class="cls-1" d="m8.94,2.77c0-.1.03-.19.06-.28l-2.63-.99c-.17.3-.49.52-.86.52s-.69-.21-.86-.51l-2.66,1c.02.08.05.17.05.26,0,.51-.38.91-.87.98v2.44c0,1.47.42,2.79,1.25,3.95.61.85,1.34,1.5,2.18,1.93.16-.34.5-.58.9-.58s.74.24.91.58c.84-.44,1.58-1.09,2.19-1.94.83-1.15,1.25-2.48,1.25-3.95v-2.43c-.51-.05-.91-.47-.91-.99Zm-6.68,1.6c0-.58.47-1.05,1.05-1.05h1.38v.25h-1.38c-.44,0-.8.36-.8.8v1.42h-.25v-1.42Zm2.47,5.39h-1.42c-.58,0-1.05-.47-1.05-1.05v-1.38h.25v1.38c0,.44.36.8.8.8h1.42v.25Zm1.07-1.42c-.09.01-.18.02-.28.02h-.05s0,0,0,0c-.26,0-.51-.07-.74-.19-.14.07-.28.12-.41.16-.1.03-.19.05-.29.07-.05,0-.1.01-.16.01-.06,0-.11,0-.16-.02-.11-.02-.2-.07-.27-.14-.07-.07-.11-.15-.12-.25-.02-.13.01-.24.04-.32.04-.14.11-.26.16-.35.07-.13.16-.25.25-.36-.04-.17-.05-.36-.04-.55.04-.49.25-.9.63-1.23.34-.28.72-.43,1.14-.43.11,0,.22.01.34.03.15.03.3.07.43.13h0c.14-.07.29-.13.44-.18.1-.03.2-.06.3-.07.05,0,.1-.01.15-.01.05,0,.09,0,.14.01.11.02.19.07.26.14.07.07.11.17.13.28.01.1,0,.21-.04.32-.04.13-.11.25-.16.34-.07.13-.16.25-.24.36.02.09.04.17.05.26.01.12.01.24,0,.35-.02.23-.08.45-.19.65-.09.18-.21.34-.36.49-.13.13-.28.23-.45.31-.17.08-.34.14-.52.17Zm3.07.39c0,.58-.47,1.05-1.05,1.05h-1.38v-.25h1.38c.44,0,.8-.36.8-.8v-1.42h.25v1.42Zm0-2.96h-.25v-1.38c0-.44-.36-.8-.8-.8h-1.42v-.25h1.42c.58,0,1.05.47,1.05,1.05v1.38Z"/>
      <path class="cls-2" d="m2.51,4.36c0-.44.36-.8.8-.8h1.38v-.25h-1.38c-.58,0-1.05.47-1.05,1.05v1.42h.25v-1.42Z"/>
      <path class="cls-2" d="m7.81,3.33h-1.42v.25h1.42c.44,0,.8.36.8.8v1.38h.25v-1.38c0-.58-.47-1.05-1.05-1.05Z"/>
      <path class="cls-2" d="m8.61,8.72c0,.44-.36.8-.8.8h-1.38v.25h1.38c.58,0,1.05-.47,1.05-1.05v-1.42h-.25v1.42Z"/>
      <path class="cls-2" d="m2.51,8.7v-1.38h-.25v1.38c0,.58.47,1.05,1.05,1.05h1.42v-.25h-1.42c-.44,0-.8-.36-.8-.8Z"/>
      <path class="cls-2" d="m9,2.49c.02-.08.06-.16.1-.23l-2.64-.99c-.02.08-.05.16-.09.23l2.63.99Z"/>
      <path class="cls-2" d="m9.85,3.76v2.43c0,1.47-.42,2.8-1.25,3.95-.61.85-1.35,1.5-2.19,1.94.04.08.05.16.07.25.9-.46,1.68-1.14,2.33-2.04.86-1.2,1.3-2.58,1.3-4.1v-2.44c-.05,0-.1.03-.15.03-.04,0-.07-.02-.1-.02Z"/>
      <path class="cls-2" d="m2.41,10.14c-.83-1.15-1.25-2.48-1.25-3.95v-2.44s-.09.03-.15.03c-.04,0-.07-.02-.1-.02v2.43c0,1.52.44,2.9,1.3,4.1.65.9,1.42,1.58,2.32,2.04.02-.09.03-.17.07-.25-.84-.44-1.57-1.09-2.18-1.93Z"/>
      <path class="cls-2" d="m4.64,1.51c-.04-.07-.07-.15-.1-.23l-2.66,1c.04.07.07.15.09.23l2.66-1Z"/>
      <path class="cls-2" d="m4.61,1.01c0-.49.4-.89.89-.89s.89.4.89.89c0,.08-.03.15-.04.22l.12.04c.02-.09.05-.17.05-.26,0-.56-.45-1.01-1.01-1.01s-1.01.45-1.01,1.01c0,.09.03.18.05.27l.12-.04c-.02-.07-.05-.14-.05-.22Z"/>
      <path class="cls-2" d="m5.5,2.02c.37,0,.69-.21.86-.52l-.12-.04c-.16.26-.42.44-.75.44s-.59-.18-.74-.43l-.12.04c.18.3.49.51.86.51Z"/>
      <path class="cls-2" d="m6.24,1.46l.12.04c.04-.07.07-.15.09-.23l-.12-.04c-.02.08-.05.16-.1.23Z"/>
      <path class="cls-2" d="m4.75,1.47c-.04-.07-.08-.15-.1-.23l-.12.04c.02.08.05.16.1.23l.12-.04Z"/>
      <path class="cls-2" d="m4.73,1.01c0-.42.34-.76.76-.76s.76.34.76.76c0,.06-.02.12-.04.17l.12.04c.02-.07.04-.14.04-.22,0-.49-.4-.89-.89-.89s-.89.4-.89.89c0,.08.03.15.05.22l.12-.04c-.01-.06-.04-.12-.04-.18Z"/>
      <path class="cls-2" d="m5.5,1.9c.32,0,.59-.18.75-.44l-.12-.04c-.14.21-.36.36-.63.36s-.49-.15-.63-.35l-.12.04c.16.25.42.43.74.43Z"/>
      <path class="cls-2" d="m6.13,1.42l.12.04c.04-.07.07-.15.1-.23l-.12-.04c-.02.08-.05.16-.1.23Z"/>
      <path class="cls-2" d="m4.77,1.19l-.12.04c.02.08.05.16.1.23l.12-.04c-.05-.07-.08-.15-.1-.23Z"/>
      <path class="cls-2" d="m10.96,2.77c0-.56-.45-1.01-1.01-1.01-.37,0-.68.21-.86.51l.12.04c.16-.25.42-.43.74-.43.49,0,.89.4.89.89,0,.44-.32.78-.74.86v.13c.48-.08.86-.48.86-.98Z"/>
      <path class="cls-2" d="m9.06,2.77c0-.08.03-.16.05-.23l-.12-.04c-.03.09-.06.18-.06.28,0,.52.4.94.91.99v-.13c-.44-.05-.79-.41-.79-.87Z"/>
      <path class="cls-2" d="m9.95,3.65s-.07-.02-.1-.02v.13s.06.02.1.02c.05,0,.1-.02.15-.03v-.13c-.05,0-.1.03-.15.03Z"/>
      <path class="cls-2" d="m9.11,2.53c.02-.08.06-.16.1-.23l-.12-.04c-.04.07-.08.15-.1.23l.12.04Z"/>
      <path class="cls-2" d="m9.19,2.77c0-.07.02-.13.04-.19l-.12-.04c-.02.08-.05.15-.05.23,0,.45.35.81.79.87v-.12c-.37-.05-.66-.36-.66-.74Z"/>
      <path class="cls-2" d="m9.95,2c.42,0,.76.34.76.76,0,.37-.27.66-.61.73v.12c.42-.07.74-.42.74-.86,0-.49-.4-.89-.89-.89-.32,0-.58.18-.74.43l.12.04c.14-.2.36-.34.62-.34Z"/>
      <path class="cls-2" d="m9.23,2.58c.02-.08.06-.16.1-.23l-.12-.04c-.04.07-.08.15-.1.23l.12.04Z"/>
      <path class="cls-2" d="m9.95,3.53s-.07-.02-.1-.02v.12s.06.02.1.02c.05,0,.1-.02.15-.03v-.12s-.1.03-.15.03Z"/>
      <path class="cls-2" d="m.12,2.77c0-.49.4-.89.89-.89.32,0,.59.18.75.44l.12-.04c-.17-.3-.49-.52-.87-.52-.56,0-1.01.45-1.01,1.01,0,.52.4.94.91.99v-.13c-.44-.05-.78-.41-.78-.87Z"/>
      <path class="cls-2" d="m2.02,2.77c0-.09-.03-.17-.05-.26l-.12.04c.02.07.04.14.04.22,0,.44-.32.79-.74.86v.13c.49-.07.87-.48.87-.98Z"/>
      <path class="cls-2" d="m1.85,2.55l.12-.04c-.02-.08-.05-.16-.09-.23l-.12.04c.04.07.07.15.1.23Z"/>
      <path class="cls-2" d="m1.16,3.75v-.13s-.09.03-.15.03c-.04,0-.07-.02-.1-.02v.13s.07.02.1.02c.05,0,.1-.02.15-.03Z"/>
      <path class="cls-2" d="m.25,2.77c0-.42.34-.76.76-.76.27,0,.49.15.63.36l.12-.04c-.16-.26-.43-.44-.75-.44-.49,0-.89.4-.89.89,0,.45.34.81.78.87v-.12c-.37-.05-.66-.36-.66-.74Z"/>
      <path class="cls-2" d="m1.9,2.77c0-.08-.03-.15-.04-.22l-.12.04c.01.06.03.11.03.17,0,.37-.27.66-.62.73v.12c.42-.07.74-.42.74-.86Z"/>
      <path class="cls-2" d="m1.01,3.53s-.07-.02-.1-.02v.12s.07.02.1.02c.05,0,.1-.02.15-.03v-.12s-.09.03-.15.03Z"/>
      <path class="cls-2" d="m1.74,2.59l.12-.04c-.02-.08-.05-.16-.1-.23l-.12.04c.05.07.08.15.1.23Z"/>
      <path class="cls-2" d="m5.5,11.5c-.4,0-.74.24-.9.58.04.02.08.03.11.05.14-.29.44-.5.79-.5s.65.21.79.51c.04-.02.08-.03.11-.05-.16-.34-.51-.58-.91-.58Z"/>
      <path class="cls-2" d="m6.38,12.51c0,.49-.4.89-.89.89s-.89-.4-.89-.89c0-.05.02-.09.03-.14-.04-.02-.08-.03-.12-.05-.01.06-.04.12-.04.19,0,.56.45,1.01,1.01,1.01s1.01-.45,1.01-1.01c0-.06-.03-.12-.04-.18-.04.02-.08.03-.12.05,0,.05.03.09.03.14Z"/>
      <path class="cls-2" d="m4.71,12.13s-.08-.03-.11-.05c-.04.08-.05.16-.07.25.04.02.08.03.12.05.01-.09.03-.17.07-.24Z"/>
      <path class="cls-2" d="m6.29,12.13c.04.08.05.16.07.24.04-.02.08-.03.12-.05-.02-.09-.03-.17-.07-.25-.04.02-.08.03-.11.05Z"/>
      <path class="cls-2" d="m5.5,11.63c-.35,0-.65.21-.79.5.04.02.08.03.12.05.13-.25.38-.43.67-.43s.55.18.68.43c.04-.02.08-.03.12-.05-.14-.3-.44-.51-.79-.51Z"/>
      <path class="cls-2" d="m6.26,12.51c0,.42-.34.76-.76.76s-.76-.34-.76-.76c0-.03.01-.06.02-.09-.04-.02-.08-.03-.12-.05,0,.05-.03.09-.03.14,0,.49.4.89.89.89s.89-.4.89-.89c0-.05-.02-.09-.03-.14-.04.02-.08.03-.12.05,0,.03.02.06.02.09Z"/>
      <path class="cls-2" d="m4.82,12.18s-.08-.03-.12-.05c-.04.08-.05.16-.07.24.04.02.08.03.12.05.01-.09.03-.17.07-.24Z"/>
      <path class="cls-2" d="m6.24,12.42s.08-.03.12-.05c-.01-.09-.03-.17-.07-.24-.04.02-.08.03-.12.05.04.08.06.16.07.24Z"/>
      <path class="cls-2" d="m7.12,7.36c.1-.21.17-.43.19-.65.01-.11,0-.23,0-.35,0-.09-.03-.18-.05-.26.08-.11.16-.23.24-.36.05-.09.11-.2.16-.34.04-.11.05-.22.04-.32-.02-.11-.06-.2-.13-.28-.07-.07-.15-.12-.26-.14-.05,0-.1-.01-.14-.01-.05,0-.1,0-.15.01-.1.01-.2.04-.3.07-.15.05-.29.11-.44.18h0c-.13-.06-.28-.1-.43-.13-.12-.02-.23-.03-.34-.03-.42,0-.8.14-1.14.43-.38.32-.59.73-.63,1.23-.01.19,0,.38.04.55-.09.12-.17.24-.25.36-.05.09-.12.21-.16.35-.02.07-.05.19-.04.32.01.1.05.19.12.25.07.07.16.12.27.14.05.01.1.02.16.02.05,0,.1,0,.16-.01.1-.01.2-.04.29-.07.13-.04.26-.09.41-.16.23.11.48.18.74.19h0s.05,0,.05,0c.09,0,.19,0,.28-.02.18-.03.35-.08.52-.17.16-.08.31-.19.45-.31.15-.14.27-.31.36-.49Zm-.9.6c-.15.07-.3.12-.46.15-.08.01-.16.02-.24.02-.02,0-.03,0-.05,0-.26,0-.5-.08-.72-.2,0,0-.01,0-.02,0s-.01,0-.02,0c-.15.07-.3.14-.46.19-.08.03-.17.05-.26.06-.04,0-.08,0-.12,0-.04,0-.07,0-.11-.01-.06-.01-.11-.03-.16-.08-.03-.04-.05-.08-.06-.13,0-.08,0-.15.03-.22.03-.11.08-.21.14-.31.08-.13.16-.25.25-.37,0,0,.01-.02.01-.02,0,0,0,0,0,0,0,0,0,0,0,0,0,0,0,0,0,0,0,0-.01.01-.02.02-.04.06-.07.11-.11.17-.05.09-.1.18-.12.28-.01.05-.02.09-.02.14,0,.11.06.19.17.21.03,0,.06,0,.09,0,.02,0,.04,0,.07,0,.15-.02.3-.07.44-.13,0,0,0,0,0,0-.39-.35-.58-.79-.54-1.32.03-.43.22-.79.55-1.07.3-.25.63-.38,1-.38.1,0,.2,0,.3.03.48.09.84.36,1.1.78.03-.04.05-.08.07-.11.06-.09.11-.18.14-.28.02-.06.03-.11.03-.17,0-.06-.01-.12-.06-.16-.03-.03-.08-.05-.13-.06-.03,0-.05,0-.08,0-.04,0-.08,0-.13.01-.14.02-.28.07-.41.13-.01,0-.02,0-.04.01.02,0,.04-.02.06-.03.13-.07.27-.12.41-.17.09-.03.17-.05.26-.07.04,0,.08-.01.12-.01.03,0,.07,0,.1,0,.05.01.1.03.14.07.04.04.06.09.07.15,0,.08,0,.16-.03.23-.03.1-.08.2-.14.29-.08.15-.18.29-.28.42,0,0,0,.01,0,.02.03.1.06.21.07.32.01.1.01.2,0,.31-.02.2-.07.39-.16.57-.08.16-.19.3-.31.43-.12.11-.25.2-.39.28Zm-2.13-.32s-.05,0-.07.01c-.02,0-.04,0-.05,0-.02,0-.03,0-.05,0,0-.02,0-.04.02-.07,0-.03.02-.07.04-.1.03.06.07.11.11.16Zm2.64-2.42s.04,0,.06-.01c.03,0,.06,0,.09,0h.06s-.02.06-.04.1c0,.02-.02.04-.03.07-.05-.05-.09-.1-.14-.15Z"/>
      <path class="cls-2" d="m6.87,6.24s0,0-.01.01c-.09.12-.19.23-.3.33-.05.05-.1.1-.15.15-.09.09-.19.18-.28.27-.13.11-.26.22-.4.32-.1.08-.21.15-.31.22-.05.03-.1.06-.15.09,0,0,0,0,0,0,.16.11.34.16.53.16.03,0,.06,0,.09,0,.13-.01.24-.05.35-.11.14-.07.25-.17.35-.29.2-.25.29-.53.29-.85,0-.09,0-.18-.02-.27,0-.01,0-.03,0-.04Zm-.44,1.02c-.08.1-.17.18-.28.23-.09.05-.18.07-.27.08-.03,0-.05,0-.07,0-.02,0-.04,0-.06,0,.04-.03.08-.05.11-.08.14-.1.28-.21.41-.33.1-.09.2-.18.29-.28l.08-.08c-.04.17-.11.32-.22.45Z"/>
      <path class="cls-2" d="m6.47,6.3c.1-.11.2-.22.3-.34,0,0,0-.01,0-.02-.08-.16-.18-.29-.31-.41-.07-.07-.15-.13-.24-.17-.13-.06-.27-.1-.41-.1-.07,0-.14,0-.22.03-.18.04-.34.13-.47.26-.11.11-.2.23-.26.37-.08.17-.12.35-.13.54,0,.12,0,.25.03.37.04.18.11.35.22.51.02.04.05.07.08.11,0,0,.01,0,.01,0,.28-.17.54-.36.79-.57.21-.18.42-.36.61-.57Zm-1.35.85c-.07-.11-.11-.23-.14-.36-.02-.1-.03-.2-.02-.31,0-.16.04-.31.11-.46.06-.12.13-.22.21-.3.11-.11.24-.18.37-.21.06-.01.11-.02.17-.02.11,0,.21.02.32.07.07.03.13.08.18.13.08.07.14.15.2.24-.07.08-.13.15-.2.23-.18.19-.37.37-.59.55-.2.17-.4.32-.6.45Z"/>
    </g>
  </g>
</svg>