<?xml version="1.0" encoding="UTF-8"?>
<svg id="Layer_2" data-name="Layer 2" xmlns="http://www.w3.org/2000/svg" viewBox="0 0 11.92 12.26">
  <defs>
    <style>
      .cls-1 {
        fill: #00ffa3;
        stroke-width: 0px;
      }
    </style>
  </defs>
  <g id="Layer_1-2" data-name="Layer 1">
    <path class="cls-1" d="m7.96,8.5H3.96c-.13,0-.25-.05-.33-.13s-.13-.2-.13-.33v-3c0-.13.04-.25.13-.34.09-.09.2-.14.34-.14h.53v-.27c0-.4.14-.76.42-1.04.28-.29.63-.44,1.05-.44s.78.15,1.06.43c.28.29.42.64.42,1.05v.27h.52c.13,0,.25.05.34.14s.14.21.14.34v3c0,.13-.05.25-.14.34-.09.09-.21.13-.34.13Zm-4-3.7c-.06,0-.11.02-.16.06-.04.05-.06.1-.06.17v3c0,.07.02.12.06.16s.09.06.16.06h4c.07,0,.12-.02.17-.06.04-.04.06-.09.06-.16v-3c0-.07-.02-.12-.07-.16s-.1-.07-.16-.07h-.77v-.52c0-.34-.11-.63-.35-.87-.23-.24-.52-.36-.88-.36s-.63.12-.87.36c-.24.24-.35.53-.35.87v.52h-.78Z"/>
    <path class="cls-1" d="m5.96,7.24c-.18,0-.34-.07-.49-.22s-.22-.31-.22-.49.07-.34.22-.49c.29-.3.69-.3.99,0,.15.15.22.31.22.49s-.08.35-.23.49c-.15.14-.31.22-.49.22Zm0-1.18c-.11,0-.21.05-.31.15-.1.1-.15.21-.15.32s.05.21.15.31c.2.2.43.2.63,0,.1-.1.15-.2.15-.31s-.05-.22-.15-.32-.21-.15-.32-.15Z"/>
    <path class="cls-1" d="m6.99,4.81h-2.05v-.52c0-.28.1-.52.3-.72.2-.2.44-.3.72-.3s.52.1.72.31c.19.2.3.44.32.71v.53Zm-1.8-.25h1.55v-.28c-.01-.21-.09-.39-.25-.55-.15-.16-.33-.23-.54-.23s-.39.08-.54.23c-.15.16-.23.34-.23.55v.27Z"/>
    <g>
      <path class="cls-1" d="m11.92,6.1h-1.71v-.12c-.07-1.14-.52-2.11-1.33-2.88-.81-.77-1.79-1.17-2.93-1.17s-2.12.39-2.93,1.17c-.81.78-1.26,1.75-1.32,2.88v.12H0v-.25h1.47c.09-1.15.56-2.14,1.39-2.93.86-.82,1.9-1.24,3.1-1.24s2.24.42,3.1,1.24c.83.79,1.3,1.78,1.39,2.93h1.48v.25Z"/>
      <path class="cls-1" d="m5.96,10.63c-1.2,0-2.24-.41-3.1-1.23-.83-.79-1.3-1.78-1.39-2.94H0v-.25h1.7v.12c.07,1.15.52,2.12,1.33,2.89.81.77,1.79,1.16,2.93,1.16s2.12-.39,2.93-1.16c.81-.77,1.26-1.74,1.32-2.89v-.12h1.72v.25h-1.48c-.09,1.16-.56,2.15-1.39,2.94-.86.82-1.9,1.23-3.1,1.23Z"/>
      <path class="cls-1" d="m5.96,12.26c-2.53,0-4.76-1.53-5.67-3.9l.23-.09c.88,2.27,3.01,3.74,5.44,3.74s4.56-1.47,5.44-3.74l.23.09c-.92,2.37-3.14,3.9-5.67,3.9Z"/>
      <path class="cls-1" d="m.52,3.99l-.23-.09C1.21,1.53,3.43,0,5.96,0s4.76,1.53,5.67,3.9l-.23.09C10.52,1.72,8.39.25,5.96.25S1.4,1.72.52,3.99Z"/>
    </g>
  </g>
</svg>