<?xml version="1.0" encoding="UTF-8"?>
<svg id="Layer_2" data-name="Layer 2" xmlns="http://www.w3.org/2000/svg" viewBox="0 0 10.58 12.23">
  <defs>
    <style>
      .cls-1 {
        fill: #00ffa3;
        stroke-width: 0px;
      }
    </style>
  </defs>
  <g id="Layer_1-2" data-name="Layer 1">
    <path class="cls-1" d="m9.68,12.23H.88c-.25,0-.46-.08-.63-.25-.17-.17-.25-.38-.25-.63v-6.6c0-.25.08-.47.25-.64.17-.18.38-.26.63-.26h1.32v-.75c0-.85.3-1.59.88-2.19.59-.61,1.32-.91,2.19-.91s1.64.31,2.23.91c.58.6.88,1.34.88,2.19v.75h1.3c.25,0,.47.09.64.26s.26.39.26.64v6.6c0,.25-.09.47-.26.63-.17.17-.39.25-.64.25ZM.88,4.1c-.18,0-.33.06-.45.19-.12.13-.18.28-.18.47v6.6c0,.19.06.33.18.45.12.12.27.18.45.18h8.8c.19,0,.34-.06.47-.18.13-.12.19-.27.19-.45v-6.6c0-.19-.06-.34-.19-.46s-.28-.19-.46-.19h-1.55v-1c0-.79-.27-1.47-.81-2.02-.54-.55-1.23-.83-2.05-.83s-1.48.28-2.01.84c-.54.56-.81,1.23-.81,2.02v1H.88Z"/>
    <path class="cls-1" d="m7.4,4.1H3.19v-1c0-.57.21-1.07.62-1.49.41-.42.9-.63,1.48-.63s1.07.21,1.47.63c.4.41.62.91.65,1.47v1.01Zm-3.96-.25h3.71v-.76c-.03-.49-.23-.93-.58-1.3-.36-.37-.78-.55-1.29-.55s-.93.18-1.3.55c-.37.37-.54.8-.54,1.31v.75Z"/>
    <g>
      <path class="cls-1" d="m6.62,7.62h-2.65v-2.65h2.65v2.65Zm-2.4-.25h2.15v-2.15h-2.15v2.15Z"/>
      <path class="cls-1" d="m4.08,11.03H1.43v-2.65h2.65v2.65Zm-2.4-.25h2.15v-2.15H1.68v2.15Z"/>
      <path class="cls-1" d="m9.15,11.03h-2.65v-2.65h2.65v2.65Zm-2.4-.25h2.15v-2.15h-2.15v2.15Z"/>
      <path class="cls-1" d="m8,8.55h-.25v-1.52c0-.36-.29-.65-.65-.65h-.53v-.25h.53c.49,0,.9.4.9.9v1.52Z"/>
      <path class="cls-1" d="m2.83,8.56h-.25v-1.54c0-.49.4-.9.9-.9h.6v.25h-.6c-.36,0-.65.29-.65.65v1.54Z"/>
    </g>
  </g>
</svg>