<svg width="232" height="52" viewBox="0 0 232 52" fill="none" xmlns="http://www.w3.org/2000/svg">
<g clip-path="url(#clip0_52_17)">
<mask id="mask0_52_17" style="mask-type:luminance" maskUnits="userSpaceOnUse" x="0" y="0" width="246" height="52">
<path d="M245.5 0H0V52H245.5V0Z" fill="white"/>
</mask>
<g mask="url(#mask0_52_17)">
<path d="M0 51.7774V41.5928H4.14383C4.2377 41.5928 4.3718 41.5928 4.53273 41.6067C4.69365 41.6206 4.84117 41.6346 4.96186 41.6485C5.55192 41.746 6.0347 41.9411 6.39678 42.2476C6.77227 42.5541 7.05389 42.9442 7.22823 43.404C7.40256 43.8638 7.49644 44.3932 7.49644 44.9644C7.49644 45.5357 7.40256 46.0512 7.22823 46.5249C7.05389 46.9846 6.77227 47.3747 6.39678 47.6812C6.02129 47.9878 5.53851 48.1828 4.96186 48.2803C4.84117 48.2943 4.69365 48.3082 4.51932 48.3221C4.35839 48.3361 4.22429 48.3361 4.14383 48.3361H1.85064V51.7913L0 51.7774ZM1.86405 46.5388H4.07677C4.17065 46.5388 4.27793 46.5388 4.38521 46.5249C4.4925 46.5109 4.59978 46.497 4.69365 46.4691C4.94845 46.3995 5.1362 46.2741 5.2703 46.1069C5.40441 45.9397 5.49828 45.7586 5.55192 45.5496C5.60556 45.3406 5.63238 45.1455 5.63238 44.9644C5.63238 44.7833 5.60556 44.5882 5.55192 44.3793C5.49828 44.1703 5.40441 43.9892 5.2703 43.822C5.1362 43.6548 4.93504 43.5294 4.69365 43.4597C4.59978 43.4319 4.4925 43.4179 4.38521 43.404C4.27793 43.3901 4.17065 43.3901 4.07677 43.3901H1.86405V46.5388Z" fill="#F2F3F8"/>
<path d="M22.4922 51.7774V41.5928H26.636C26.7299 41.5928 26.864 41.5928 27.0249 41.6067C27.1858 41.6206 27.3334 41.6346 27.4541 41.6485C28.0441 41.746 28.5269 41.9411 28.889 42.2476C29.2645 42.5541 29.5461 42.9442 29.7204 43.404C29.8948 43.8638 29.9886 44.3932 29.9886 44.9644C29.9886 45.8143 29.7875 46.5527 29.3717 47.1518C28.9694 47.7648 28.3257 48.1271 27.4541 48.2803L26.636 48.3361H24.3428V51.7913L22.4922 51.7774ZM24.3428 46.5388H26.5556C26.6494 46.5388 26.7567 46.5388 26.864 46.5249C26.9713 46.5109 27.0786 46.497 27.1724 46.4691C27.4272 46.3995 27.615 46.2741 27.7491 46.1069C27.8832 45.9397 27.9771 45.7586 28.0307 45.5496C28.0843 45.3406 28.1112 45.1455 28.1112 44.9644C28.1112 44.7833 28.0843 44.5882 28.0307 44.3793C27.9771 44.1703 27.8832 43.9892 27.7491 43.822C27.615 43.6548 27.4138 43.5294 27.1724 43.4597C27.0786 43.4319 26.9713 43.4179 26.864 43.404C26.7567 43.3901 26.6494 43.3901 26.5556 43.3901H24.3428V46.5388ZM28.0173 51.7774L26.0862 47.6394L27.9905 47.2633L30.1093 51.7913H28.0173V51.7774Z" fill="#F2F3F8"/>
<path d="M49.4465 51.9998C48.4676 51.9998 47.6227 51.7769 46.9119 51.3311C46.2012 50.8852 45.6514 50.2722 45.2759 49.4641C44.887 48.67 44.6992 47.7365 44.6992 46.6777C44.6992 45.6188 44.887 44.6993 45.2759 43.8912C45.6648 43.097 46.2012 42.4701 46.9119 42.0242C47.6227 41.5784 48.4676 41.3555 49.4465 41.3555C50.4255 41.3555 51.2703 41.5784 51.9811 42.0242C52.6918 42.4701 53.2417 43.0831 53.6172 43.8912C54.0061 44.6853 54.1938 45.6188 54.1938 46.6777C54.1938 47.7365 54.0061 48.6561 53.6172 49.4641C53.2283 50.2583 52.6918 50.8852 51.9811 51.3311C51.2837 51.7769 50.4389 51.9998 49.4465 51.9998ZM49.4465 50.1886C50.0634 50.2026 50.5864 50.0632 51.0021 49.7707C51.4179 49.4781 51.7263 49.074 51.9275 48.5446C52.1286 48.0152 52.2359 47.4021 52.2359 46.6916C52.2359 45.981 52.1286 45.368 51.9275 44.8525C51.7263 44.337 51.4044 43.933 51.0021 43.6404C50.5864 43.3478 50.0768 43.2085 49.4465 43.1946C48.8296 43.1806 48.3066 43.3199 47.8909 43.6125C47.4752 43.9051 47.1667 44.3091 46.9656 44.8386C46.7644 45.368 46.6571 45.981 46.6571 46.6916C46.6571 47.4021 46.7644 48.0152 46.9656 48.5307C47.1667 49.0462 47.4886 49.4502 47.8909 49.7428C48.3066 50.0214 48.8296 50.1747 49.4465 50.1886Z" fill="#F2F3F8"/>
<path d="M71.1955 51.7774V43.3901H68.0977V41.5928H76.1305V43.3901H73.0327V51.7774H71.1955Z" fill="#F2F3F8"/>
<path d="M95.0676 51.9998C94.0887 51.9998 93.2438 51.7769 92.533 51.3311C91.8223 50.8852 91.2725 50.2722 90.897 49.4641C90.5081 48.67 90.3203 47.7365 90.3203 46.6777C90.3203 45.6188 90.5081 44.6993 90.897 43.8912C91.2859 43.097 91.8223 42.4701 92.533 42.0242C93.2438 41.5784 94.0887 41.3555 95.0676 41.3555C96.0466 41.3555 96.8914 41.5784 97.6022 42.0242C98.3129 42.4701 98.8628 43.0831 99.2383 43.8912C99.6272 44.6853 99.8149 45.6188 99.8149 46.6777C99.8149 47.7365 99.6272 48.6561 99.2383 49.4641C98.8494 50.2583 98.3129 50.8852 97.6022 51.3311C96.8914 51.7769 96.0466 51.9998 95.0676 51.9998ZM95.0676 50.1886C95.6845 50.2026 96.2075 50.0632 96.6232 49.7707C97.0389 49.4781 97.3474 49.074 97.5485 48.5446C97.7497 48.0152 97.857 47.4021 97.857 46.6916C97.857 45.981 97.7497 45.368 97.5485 44.8525C97.3474 44.337 97.0255 43.933 96.6232 43.6404C96.2075 43.3478 95.6979 43.2085 95.0676 43.1946C94.4507 43.1806 93.9277 43.3199 93.512 43.6125C93.0963 43.9051 92.7878 44.3091 92.5867 44.8386C92.3855 45.368 92.2782 45.981 92.2782 46.6916C92.2782 47.4021 92.3855 48.0152 92.5867 48.5307C92.7878 49.0462 93.1097 49.4502 93.512 49.7428C93.9277 50.0214 94.4507 50.1747 95.0676 50.1886Z" fill="#F2F3F8"/>
<path d="M119.017 51.9998C118.038 51.9998 117.193 51.7769 116.482 51.3311C115.772 50.8852 115.222 50.2722 114.846 49.4641C114.457 48.67 114.27 47.7365 114.27 46.6777C114.27 45.6188 114.457 44.6993 114.846 43.8912C115.235 43.097 115.772 42.4701 116.482 42.0242C117.193 41.5784 118.038 41.3555 119.017 41.3555C120.143 41.3555 121.095 41.6481 121.86 42.2193C122.624 42.8044 123.161 43.5847 123.483 44.5739L121.618 45.1172C121.431 44.5042 121.136 44.0166 120.693 43.6822C120.264 43.3339 119.701 43.1667 119.03 43.1667C118.413 43.1667 117.89 43.306 117.475 43.5986C117.059 43.8912 116.75 44.2952 116.536 44.8107C116.321 45.3401 116.227 45.9532 116.227 46.6637C116.227 47.3743 116.335 47.9873 116.536 48.5167C116.75 49.0462 117.059 49.4502 117.475 49.7289C117.89 50.0075 118.413 50.1608 119.03 50.1608C119.714 50.1608 120.264 49.9936 120.693 49.6453C121.122 49.297 121.431 48.8233 121.618 48.2102L123.483 48.7536C123.174 49.7428 122.624 50.5369 121.86 51.1082C121.095 51.7073 120.143 51.9998 119.017 51.9998Z" fill="#F2F3F8"/>
<path d="M142.81 51.9998C141.831 51.9998 140.986 51.7769 140.275 51.3311C139.564 50.8852 139.015 50.2722 138.639 49.4641C138.25 48.67 138.062 47.7365 138.062 46.6777C138.062 45.6188 138.25 44.6993 138.639 43.8912C139.028 43.097 139.564 42.4701 140.275 42.0242C140.986 41.5784 141.831 41.3555 142.81 41.3555C143.789 41.3555 144.634 41.5784 145.344 42.0242C146.055 42.4701 146.605 43.0831 146.98 43.8912C147.369 44.6853 147.557 45.6188 147.557 46.6777C147.557 47.7365 147.369 48.6561 146.98 49.4641C146.592 50.2583 146.055 50.8852 145.344 51.3311C144.634 51.7769 143.789 51.9998 142.81 51.9998ZM142.81 50.1886C143.427 50.2026 143.95 50.0632 144.365 49.7707C144.781 49.4781 145.09 49.074 145.291 48.5446C145.492 48.0152 145.599 47.4021 145.599 46.6916C145.599 45.981 145.492 45.368 145.291 44.8525C145.09 44.337 144.768 43.933 144.365 43.6404C143.95 43.3478 143.44 43.2085 142.81 43.1946C142.193 43.1806 141.67 43.3199 141.254 43.6125C140.838 43.9051 140.53 44.3091 140.329 44.8386C140.128 45.368 140.02 45.981 140.02 46.6916C140.02 47.4021 140.128 48.0152 140.329 48.5307C140.53 49.0462 140.852 49.4502 141.254 49.7428C141.67 50.0214 142.193 50.1747 142.81 50.1886Z" fill="#F2F3F8"/>
<path d="M162.684 51.7774V41.5928H164.534V49.9801H168.759V51.7774H162.684Z" fill="#F2F3F8"/>
<path d="M27.117 28.691C27.117 29.0532 27.0499 29.4015 26.9024 29.708C26.7817 30.0285 26.5939 30.2932 26.3794 30.5301C26.1648 30.753 25.91 30.9341 25.6016 31.0595C25.2931 31.1849 24.9847 31.2546 24.636 31.2546C24.3276 31.2546 24.0191 31.1988 23.7107 31.0734C23.4023 30.962 23.1341 30.7669 22.8927 30.5022L4.96291 11.0386V30.8644H0.0546875V4.89439C0.0546875 4.36496 0.188792 3.90519 0.470411 3.48722C0.765441 3.05531 1.12752 2.73487 1.57007 2.52588C2.03943 2.33083 2.5088 2.28903 3.00498 2.38656C3.50117 2.48408 3.91689 2.707 4.26557 3.09711L22.2087 22.5468V2.72094H27.117V28.691ZM59.4227 30.8644H54.5145V23.954H37.2418V30.8644H32.3336V16.7927C32.3336 14.7446 32.6689 12.8498 33.3528 11.1222C34.0367 9.39457 34.9755 7.9038 36.1824 6.66381C37.3893 5.42383 38.8243 4.44856 40.4737 3.76587C42.1232 3.06925 43.9202 2.72094 45.8782 2.72094H56.9418C57.277 2.72094 57.5989 2.7906 57.9073 2.91599C58.2158 3.04138 58.4706 3.23644 58.6985 3.45935C58.9265 3.69621 59.1008 3.97485 59.2215 4.28137C59.3422 4.60181 59.4093 4.92226 59.4093 5.2845L59.4227 30.8644ZM37.2418 18.8547H54.5145V7.8202H45.8782C45.7306 7.8202 45.4088 7.84807 44.9126 7.9038C44.4298 7.9456 43.88 8.05706 43.2363 8.23818C42.606 8.4193 41.9355 8.69795 41.2381 9.08806C40.5274 9.46423 39.8837 9.99366 39.2936 10.6624C38.7036 11.3312 38.2074 12.1671 37.8185 13.1703C37.443 14.1595 37.2552 15.3716 37.2552 16.8066L37.2418 18.8547ZM129.948 12.1811C129.948 13.3514 129.814 14.3824 129.532 15.3019C129.251 16.2215 128.875 17.0295 128.406 17.7401C127.937 18.4367 127.4 19.0219 126.783 19.5234C126.166 20.025 125.523 20.4291 124.839 20.7634C124.168 21.0839 123.498 21.3068 122.8 21.4461C122.117 21.5854 121.473 21.669 120.869 21.669L131.128 30.8784H123.538L113.306 21.669H109.779V16.5698H120.883C121.5 16.514 122.063 16.3886 122.559 16.1797C123.082 15.9567 123.511 15.6642 123.887 15.3019C124.262 14.9397 124.557 14.4938 124.758 13.9923C124.96 13.4628 125.067 12.8777 125.067 12.2089V8.99053C125.067 8.69795 125.027 8.48896 124.96 8.34964C124.892 8.19638 124.812 8.08492 124.691 8.01526C124.584 7.93166 124.477 7.88987 124.356 7.87593C124.249 7.862 124.141 7.862 124.034 7.862H107.821V30.8644H102.913V5.29843C102.913 4.95012 102.98 4.61575 103.1 4.2953C103.221 3.97485 103.396 3.71014 103.61 3.47329C103.838 3.23644 104.106 3.05531 104.401 2.92992C104.71 2.80453 105.032 2.73487 105.38 2.73487H124.021C125.12 2.73487 126.046 2.94385 126.797 3.36183C127.548 3.76587 128.165 4.28137 128.634 4.90833C129.117 5.52135 129.452 6.19011 129.653 6.9146C129.868 7.63908 129.975 8.30784 129.975 8.9348V12.1811H129.948ZM139.832 30.8644H134.923V2.72094H139.832V30.8644ZM171.601 22.5886C171.601 23.5917 171.467 24.5113 171.226 25.3193C170.984 26.1135 170.662 26.824 170.26 27.4371C169.858 28.0501 169.388 28.5795 168.838 29.0114C168.302 29.4433 167.739 29.7916 167.162 30.0703C166.586 30.3489 165.995 30.544 165.392 30.6833C164.802 30.8087 164.239 30.8784 163.702 30.8784H144.753V25.7791H163.702C164.654 25.7791 165.379 25.4865 165.888 24.9153C166.411 24.3441 166.679 23.5638 166.679 22.6025C166.679 22.1288 166.612 21.6969 166.465 21.3068C166.331 20.9167 166.13 20.5684 165.861 20.2897C165.607 19.9971 165.298 19.7742 164.923 19.621C164.561 19.4677 164.145 19.3841 163.689 19.3841H152.411C151.619 19.3841 150.761 19.2448 149.836 18.9522C148.911 18.6457 148.066 18.172 147.261 17.5172C146.483 16.8624 145.826 16.0125 145.303 14.9536C144.794 13.8947 144.525 12.599 144.525 11.0665C144.525 9.53389 144.78 8.25211 145.303 7.20718C145.826 6.14831 146.483 5.2845 147.261 4.62968C148.052 3.96092 148.911 3.48722 149.836 3.19464C150.761 2.88812 151.606 2.7488 152.411 2.7488H169.133V7.84807H152.411C151.472 7.84807 150.748 8.14065 150.225 8.72581C149.715 9.31097 149.447 10.0912 149.447 11.0665C149.447 12.0417 149.702 12.8219 150.225 13.4071C150.748 13.9644 151.485 14.257 152.411 14.257H163.742C164.266 14.2709 164.829 14.3545 165.419 14.4938C166.009 14.6192 166.599 14.8282 167.176 15.1208C167.766 15.4134 168.329 15.7756 168.852 16.2215C169.375 16.6534 169.844 17.1828 170.247 17.7958C170.662 18.4089 170.984 19.1194 171.226 19.9136C171.48 20.6659 171.601 21.5715 171.601 22.5886Z" fill="#F2F3F8"/>
<path d="M67.0143 21.7392C66.612 22.408 66.1829 23.0628 65.8074 23.7455C65.3112 24.6093 64.882 25.5288 64.6138 26.5041C64.4797 26.9639 64.3993 27.4376 64.3993 27.9252C64.3993 29.0537 64.9893 29.7922 66.0488 30.029C66.5718 30.1405 67.0814 30.1405 67.6044 30.0847C69.0929 29.9176 70.4876 29.4021 71.8555 28.8169C71.8689 28.8169 71.8823 28.803 71.8823 28.803C68.1542 25.2502 66.3304 20.8615 66.7193 15.595C67.0411 11.262 68.8515 7.6396 72.0432 4.83918C75.664 1.66258 79.8883 0.492261 84.5418 1.35607C89.2086 2.23381 92.6819 4.95064 95.1092 9.15823C95.3506 8.78206 95.592 8.39195 95.8199 8.01577C96.3564 7.11016 96.8391 6.17669 97.1744 5.17356C97.3621 4.61626 97.4963 4.05896 97.4963 3.4738C97.5097 2.86077 97.3756 2.28954 96.933 1.84371C96.5978 1.50933 96.1686 1.34214 95.7127 1.25854C95.0556 1.14708 94.4118 1.20281 93.7547 1.31427C92.3869 1.55113 91.0861 2.05269 89.8121 2.60999C89.6914 2.66572 89.5841 2.70752 89.4634 2.74931C89.6377 2.65179 89.8121 2.56819 89.9998 2.47067C91.2872 1.81584 92.588 1.23068 93.9425 0.756977C94.7739 0.464396 95.6188 0.227545 96.4905 0.102153C97.1878 -0.00930674 97.8986 -0.051104 98.5959 0.0882203C99.1189 0.19968 99.6017 0.394734 99.9772 0.812707C100.366 1.24461 100.581 1.76011 100.661 2.34527C100.755 3.13942 100.607 3.90571 100.366 4.64412C100.044 5.67512 99.5615 6.63646 99.0385 7.56993C98.2204 9.03284 97.2817 10.4261 96.3027 11.7915C96.2625 11.8611 96.2491 11.9029 96.2759 11.9865C96.6112 13.0175 96.8257 14.0764 96.933 15.1631C97.0403 16.1802 97.0537 17.1972 96.9598 18.2282C96.7989 20.2484 96.2759 22.1572 95.3908 23.9684C94.613 25.5706 93.5938 26.9917 92.3601 28.2317C91.2336 29.3603 89.9864 30.2798 88.5917 30.9903C87.1836 31.7148 85.7219 32.2025 84.1663 32.4533C83.2409 32.6065 82.3022 32.6622 81.3501 32.6344C78.8691 32.5508 76.5357 31.8681 74.3766 30.6002C74.2559 30.5306 74.1621 30.5306 74.0414 30.6002C72.6065 31.3387 71.1447 31.9935 69.6159 32.4951C68.7979 32.7598 67.9664 32.9827 67.1216 33.1081C66.3572 33.2195 65.5928 33.2613 64.8418 33.0941C64.2786 32.9688 63.7556 32.7458 63.3398 32.3C63.0046 31.9378 62.8302 31.5058 62.7632 31.0043C62.6693 30.238 62.8168 29.4856 63.0314 28.7612C63.3533 27.6744 63.8494 26.6713 64.3993 25.696C65.1637 24.3306 66.0622 23.0489 67.0009 21.8089C66.9875 21.7671 67.0009 21.7531 67.0143 21.7392ZM77.394 25.7796C77.461 25.7378 77.5013 25.7239 77.5281 25.696C80.1968 23.9823 82.7179 22.0597 85.1184 19.9837C87.1702 18.2143 89.1415 16.3334 90.9788 14.3132C91.9846 13.2126 92.9501 12.0701 93.862 10.8719C93.9291 10.7883 93.9291 10.7326 93.8888 10.649C93.1513 9.08857 92.1589 7.72319 90.9251 6.55287C90.2412 5.89804 89.517 5.28502 88.6588 4.86704C86.7277 3.90571 84.7161 3.65492 82.6241 4.15649C80.8539 4.57446 79.3519 5.494 78.0511 6.78972C76.9783 7.84858 76.1602 9.1025 75.5299 10.4818C74.7521 12.2094 74.3364 14.0207 74.2559 15.9155C74.2023 17.1554 74.2828 18.3815 74.5242 19.5936C74.8862 21.4327 75.5702 23.1464 76.6162 24.679C76.8442 25.0551 77.1258 25.4034 77.394 25.7796ZM79.4726 27.6466C79.486 27.6605 79.4994 27.6744 79.5263 27.6884C81.3501 28.9423 83.3616 29.4996 85.5475 29.2906C86.7545 29.1791 87.881 28.803 88.9538 28.2178C90.268 27.4933 91.3677 26.518 92.293 25.3059C94.1839 22.8259 95.0555 19.9698 95.1226 16.835C95.136 15.9433 95.069 15.0377 94.9349 14.16C94.908 14.0206 94.8812 13.8953 94.8544 13.7281C94.8142 13.7838 94.7739 13.8256 94.7471 13.8535C93.8486 15.0099 92.8965 16.1244 91.8773 17.1694C91.3945 17.657 90.8983 18.1307 90.4289 18.6323C89.5439 19.5518 88.6454 20.4435 87.72 21.3212C86.4997 22.4498 85.2257 23.5086 83.8981 24.4978C82.8923 25.2502 81.8865 25.9886 80.8807 26.7131C80.4113 27.0475 79.942 27.3401 79.4726 27.6466Z" fill="#00FFA3"/>
</g>
</g>
<path d="M182.504 52H172L188.006 0H200.637L216.62 52H206.116L194.503 11.8827H194.14L182.504 52ZM181.849 31.5604H206.658V40.1427H181.849V31.5604ZM232 0V52H222.197V0H232Z" fill="#00FFA3"/>
<defs>
<clipPath id="clip0_52_17">
<rect width="172" height="52" fill="white"/>
</clipPath>
</defs>
</svg>
